<svg width="56" height="62" viewBox="0 0 56 62" fill="none" xmlns="http://www.w3.org/2000/svg">
<path d="M36.067 38.4417L33.9901 42.368V43.401C32.678 44.0523 31.0661 45.695 29.1647 46.2839C30.1981 45.6122 31.1176 44.8375 31.9236 44.4345V43.401L34.0005 39.4747C33.5975 38.4313 33.2565 37.2739 33.081 36.6438C30.0742 39.1337 26.1375 36.4679 25.7549 36.1992C26.4752 35.9306 27.1587 35.573 27.7906 35.135C27.7906 35.135 31.9856 38.235 35.1475 35.6104C35.323 36.2409 35.664 37.3978 36.067 38.4417Z" fill="#CAD9FC"/>
<path d="M34.0005 39.4747L31.9236 43.401V44.4345C31.1176 44.8374 30.1981 45.6122 29.1646 46.2838C28.72 46.4238 28.257 46.4972 27.7906 46.5009C25.2696 46.5009 23.2031 44.2069 21.5911 43.401V42.368L19.5142 38.4417C19.6382 38.1215 19.7517 37.8008 19.8657 37.4806C20.1135 36.7469 20.3098 36.0545 20.4337 35.6104C21.9066 36.7474 23.8804 36.9967 25.5898 36.2612C25.6518 36.2408 25.7033 36.22 25.7549 36.1992C26.1375 36.4679 30.0742 39.1337 33.081 36.6438C33.2565 37.2739 33.5975 38.4313 34.0005 39.4747Z" fill="#E8EDFC"/>
<path d="M25.7549 36.1994C25.7033 36.2203 25.6517 36.2411 25.5898 36.2614C25.6825 36.1994 25.7241 36.1687 25.7241 36.1687L25.7549 36.1994Z" fill="#CAD9FC"/>
<path d="M33.9797 40.9731L33.0706 45.8397C32.9968 45.9339 32.9566 46.0507 32.9571 46.1704L29.8571 60.9669H25.7241L22.6241 46.1704C22.6246 46.0507 22.5844 45.9339 22.5106 45.8397L21.6015 40.9731C23.5266 41.9158 25.6465 42.3935 27.7906 42.368C29.9342 42.3935 32.0541 41.9158 33.9797 40.9731Z" fill="#A4C2F7"/>
<path d="M37.7925 39.4955L30.849 55.1288C30.752 55.3572 30.5056 55.4845 30.2629 55.4315C30.0203 55.3785 29.85 55.16 29.8571 54.9117V46.1704C29.8566 46.0507 29.8968 45.9339 29.9706 45.8397L33.9797 40.9731H33.9901L36.067 38.4417L36.4804 37.9455C36.6015 37.8008 36.7916 37.7341 36.9765 37.7705C37.1615 37.807 37.3119 37.9413 37.3691 38.1215L37.7925 39.4955Z" fill="#E8EDFC"/>
<path d="M38.5776 25.3297C38.1439 25.7118 37.4722 29.2455 36.6147 29.8349C36.022 30.2369 35.3698 30.5434 34.6825 30.744C32.8152 31.2198 30.8395 31.0107 29.1131 30.1551C28.2768 29.7554 27.3044 29.7554 26.4681 30.1551C24.0899 31.3962 21.2302 31.2742 18.9665 29.8349C18.109 29.2455 17.4373 25.7118 17.0031 25.3297C17.0448 24.5856 17.0963 23.8312 17.1791 23.0565V23.0461C18.8133 21.3163 19.9423 19.1723 20.4441 16.8466C20.5189 16.4029 20.5567 15.9536 20.5576 15.5033C25.1083 16.3741 29.8159 15.8486 34.0625 13.9949C34.0781 13.9921 34.0922 13.985 34.1036 13.9741C34.4035 13.8502 34.7133 13.7055 35.0236 13.5503C35.5193 13.3025 36.0154 13.0338 36.5215 12.7443C36.7074 12.6412 36.9037 12.5277 37.0901 12.4033C37.0901 12.4033 37.0901 13.9018 37.3067 16.2161C37.3147 16.2246 37.3185 16.236 37.3171 16.2473C37.617 17.7249 37.906 19.2749 38.1231 20.8348C38.3506 22.364 38.5052 23.8833 38.5776 25.3297Z" fill="#CAD9FC"/>
<path d="M36.5111 26.3631C36.0982 26.7245 35.4781 29.9067 34.6825 30.7439C32.8152 31.2198 30.8395 31.0107 29.1131 30.1551C28.2768 29.7554 27.3044 29.7554 26.4681 30.1551C24.0899 31.3962 21.2302 31.2742 18.9665 29.8349C18.109 29.2455 17.4373 25.7118 17.0031 25.3296C17.0448 24.5856 17.0963 23.8312 17.1791 23.0564V23.046C18.8558 20.8168 20.0109 18.239 20.5576 15.5033C23.327 15.7719 28.5654 17.084 34.0625 13.9949C34.0781 13.9921 34.0922 13.985 34.1036 13.9741C34.2176 13.9121 34.3415 13.8502 34.455 13.7778C34.6409 13.6742 34.8372 13.5607 35.0236 13.4368V13.5503C35.0335 13.9429 35.0543 15.307 35.2402 17.2495C35.2482 17.2576 35.252 17.2689 35.2506 17.2803C35.5505 18.7579 35.8395 20.3079 36.0566 21.8683C36.2841 23.3975 36.4388 24.9162 36.5111 26.3631Z" fill="#E8EDFC"/>
<path d="M38.1231 20.8347C37.906 19.2748 37.617 17.7248 37.3171 16.2472C37.3185 16.2358 37.3147 16.2245 37.3067 16.216C37.0901 13.9016 37.0901 12.4032 37.0901 12.4032C36.9037 12.5276 36.7074 12.6411 36.5215 12.7442C31.7084 15.5628 26.0377 16.5428 20.5576 15.5032C20.5576 18.6235 18.677 21.3616 17.1791 23.046C18.677 21.3616 18.4912 15.524 18.4912 12.4032C18.4912 12.4032 30.0534 14.377 38.1231 9.64474C38.309 9.54115 38.5052 9.42763 38.6916 9.30371C38.6916 9.30371 38.6916 10.8017 38.9082 13.1165C38.9163 13.1245 38.9201 13.1359 38.9186 13.1472C39.2185 14.6248 37.906 19.2748 38.1231 20.8347Z" fill="#FDD7AD"/>
<path d="M25.7241 54.9118V60.967H2.06232C1.77144 60.9651 1.49426 60.8412 1.29939 60.6245C1.10452 60.4084 1.01039 60.1199 1.03925 59.8304C1.38027 56.6893 2.53768 47.9891 5.05871 45.468C6.63945 43.8868 10.9276 42.027 14.7299 40.601C15.815 40.1881 16.8589 39.8158 17.7888 39.4956L25.7241 54.9118Z" fill="#CAD9FC"/>
<path d="M22.6241 55.9453V60.9671H2.06232C1.77144 60.9652 1.49426 60.8413 1.29939 60.6246C1.10452 60.4085 1.01039 60.1199 1.03925 59.8305C1.38027 56.6894 2.53768 47.9892 5.05871 45.4681C6.63945 43.8869 10.9276 42.0271 14.7299 40.6011L22.6241 55.9453Z" fill="#E8EDFC"/>
<path d="M54.5415 59.8304C54.5708 60.1199 54.4762 60.4084 54.2818 60.6245C54.087 60.8412 53.8098 60.9651 53.5189 60.967H29.8571V54.9118L36.8626 41.3038L37.7925 39.4956C41.9978 40.9524 48.4868 43.4323 50.5225 45.468C53.0435 47.9891 54.2009 56.6893 54.5415 59.8304Z" fill="#CAD9FC"/>
<path d="M51.4524 60.9671H29.8571V54.9119L36.8626 41.304C40.8612 42.7712 45.7075 44.7861 47.4225 46.5012C49.9436 49.0222 51.101 57.7224 51.442 60.8635C51.442 60.8947 51.4524 60.9359 51.4524 60.9671Z" fill="#E8EDFC"/>
<path d="M25.7241 46.1704V54.9117C25.7312 55.16 25.5609 55.3785 25.3178 55.4315C25.0752 55.4845 24.8292 55.3572 24.7323 55.1288L17.7888 39.4955L18.2121 38.1215C18.2693 37.9413 18.4197 37.807 18.6047 37.7705C18.7896 37.7341 18.9798 37.8008 19.1008 37.9455L19.5142 38.4417L21.5911 40.9731H21.6015L25.6106 45.8397C25.6844 45.9339 25.7241 46.0507 25.7241 46.1704Z" fill="#E8EDFC"/>
<path d="M17.4581 52.7006C17.4581 54.4128 16.0699 55.8006 14.3582 55.8006C12.6464 55.8006 11.2582 54.4128 11.2582 52.7006C11.2582 50.9888 12.6464 49.6011 14.3582 49.6011C16.0699 49.6011 17.4581 50.9888 17.4581 52.7006Z" fill="#A4C2F7"/>
<path d="M42.2561 46.501H43.2896C44.4309 46.501 45.356 47.4261 45.356 48.5675C45.356 49.7088 44.4309 50.634 43.2896 50.634H42.2561C41.1147 50.634 40.1896 49.7088 40.1896 48.5675C40.1896 47.4261 41.1147 46.501 42.2561 46.501Z" fill="#A4C2F7"/>
<path d="M41.2231 18.0137L38.1231 20.8346C38.0096 20.0083 37.8752 19.1815 37.7305 18.3756L38.1231 18.0137C39.2185 14.5321 40.2932 9.17971 36.0566 4.94314C33.546 2.43251 29.8571 1.28551 26.2099 1.07881C26.7368 1.04759 27.2637 1.02725 27.7906 1.03766L28.4519 1.04759C32.3677 1.11003 36.4492 2.23622 39.1566 4.94314C43.3927 9.17971 42.318 14.5321 41.2231 18.0137Z" fill="#CAD9FC"/>
<path d="M38.1231 18.0138L37.7305 18.3756C37.5962 17.6524 37.4618 16.9396 37.3171 16.2472C37.3185 16.2358 37.3147 16.2245 37.3067 16.216C37.0901 13.9016 37.0901 12.4032 37.0901 12.4032C36.9037 12.5276 36.7074 12.6411 36.5215 12.7442C35.7208 13.2134 34.8925 13.6344 34.0416 14.0047C30.6153 15.4719 26.891 16.1091 23.1719 15.865C22.2921 15.8144 21.418 15.6938 20.5576 15.5032C20.5576 15.6271 20.5576 15.7614 20.5472 15.8853C20.2483 18.5795 19.0635 21.0977 17.1791 23.0459L15.8462 20.6696L14.3582 18.0138C13.2627 14.5321 12.1881 9.17975 16.4247 4.94318C18.9254 2.44296 22.583 1.29596 26.2099 1.07886C29.8571 1.28555 33.5459 2.43255 36.0566 4.94318C40.2931 9.17975 39.2185 14.5321 38.1231 18.0138Z" fill="#E8EDFC"/>
<path d="M23.1719 15.865C22.2982 15.9227 21.4218 15.9298 20.5472 15.8853C20.5576 15.7614 20.5576 15.6271 20.5576 15.5032C21.418 15.6938 22.2921 15.8144 23.1719 15.865Z" fill="#CAD9FC"/>
<path d="M42.0082 19.6361C42.0101 19.7122 42.0063 19.7879 41.9978 19.8636L41.4297 25.0296C41.3139 26.0777 40.4275 26.87 39.3737 26.869H38.6088C38.6088 26.3729 38.5984 25.8564 38.5776 25.3295C38.5052 23.8831 38.3506 22.3638 38.1231 20.8346V19.3986C38.1221 18.9134 38.3146 18.4475 38.658 18.1045C39.0009 17.7612 39.4668 17.5686 39.9521 17.5696C40.4142 17.5682 40.8626 17.7247 41.223 18.0137C41.7164 18.4082 42.0054 19.0046 42.0082 19.6361Z" fill="#CAD9FC"/>
<path d="M17.4581 19.3986V20.8346C17.3442 21.5787 17.2514 22.3123 17.1791 23.0459V23.0563C17.0963 23.831 17.0448 24.5854 17.0031 25.3295C16.9828 25.8564 16.9724 26.3729 16.9724 26.869H16.2076C15.1537 26.87 14.2674 26.0777 14.1515 25.0296L13.5834 19.8636C13.5744 19.7879 13.5711 19.7122 13.573 19.6361C13.5758 19.0046 13.8648 18.4082 14.3582 18.0137C14.7186 17.7247 15.167 17.5682 15.6291 17.5696C16.1144 17.5686 16.5798 17.7612 16.9232 18.1045C17.2661 18.4475 17.4586 18.9134 17.4581 19.3986Z" fill="#CAD9FC"/>
<path d="M38.6088 26.8692C38.6278 28.2621 38.4646 29.6518 38.1231 31.0022C37.635 32.8104 36.5944 34.4214 35.1475 35.6105C33.0285 37.231 30.4564 38.1486 27.7906 38.2351C25.5288 38.1547 23.3261 37.4925 21.3948 36.3134C21.0604 36.0986 20.7398 35.864 20.4337 35.6105C18.9864 34.4214 17.9463 32.8104 17.4582 31.0022C17.1167 29.6518 16.9535 28.2621 16.9724 26.8692C16.9724 26.5386 16.9724 26.2079 16.9932 25.8669C16.9932 25.6914 16.9932 25.5051 17.0031 25.3296C17.5622 25.8206 18.1487 26.2794 18.7598 26.7036C18.8218 26.7557 18.8941 26.7968 18.9665 26.8484C21.2302 28.2881 24.0899 28.4102 26.4681 27.1686C27.3044 26.7694 28.2768 26.7694 29.1131 27.1686C31.4534 28.3875 34.2616 28.2891 36.5111 26.9103C36.5423 26.89 36.5835 26.8692 36.6147 26.8484C37.2982 26.381 37.9537 25.874 38.5776 25.3296C38.5984 25.8565 38.6088 26.373 38.6088 26.8692Z" fill="#7FACFA"/>
<path d="M36.5111 26.9104C36.4681 27.9434 36.3153 28.9683 36.0566 29.9692C35.5685 31.7774 34.5279 33.388 33.081 34.5775C30.962 36.1975 28.3899 37.1151 25.7241 37.2017C24.2413 37.1487 22.7783 36.8483 21.3948 36.3134C21.0604 36.0987 20.7398 35.8641 20.4337 35.6105C18.9864 34.4214 17.9463 32.8104 17.4582 31.0022C17.1167 29.6518 16.9535 28.2622 16.9724 26.8692C16.9724 26.5386 16.9724 26.208 16.9932 25.8669C17.5348 26.2363 18.1307 26.5187 18.7598 26.7037C18.8218 26.7557 18.8941 26.7968 18.9665 26.8484C21.2302 28.2882 24.0899 28.4102 26.4681 27.1686C27.3044 26.7694 28.2768 26.7694 29.1131 27.1686C31.4534 28.3875 34.2616 28.2891 36.5111 26.9104Z" fill="#A4C2F7"/>
<path d="M36.286 14.343C36.2032 14.3752 36.1219 14.4017 36.0391 14.4329C35.9152 14.4792 35.7903 14.536 35.6673 14.5776C35.8717 14.5053 36.0793 14.4225 36.286 14.343Z" fill="white"/>
<path d="M28.8795 15.8835C28.8042 15.8835 28.7224 15.8939 28.6481 15.8967C28.8217 15.8906 29.0048 15.8773 29.1846 15.8669L28.8795 15.8835Z" fill="white"/>
<path d="M38.1231 13.5504L38.2328 13.4917L38.2191 13.4978C38.1874 13.5144 38.1552 13.5338 38.1231 13.5494V13.5504Z" fill="white"/>
<path d="M30.227 15.7832C30.0988 15.7955 29.9654 15.8144 29.8405 15.8244C30.1939 15.7955 30.5567 15.7572 30.9309 15.708C30.6891 15.7397 30.4597 15.7596 30.227 15.7832Z" fill="white"/>
<path d="M34.4768 14.9526C34.3851 14.9796 34.29 15.0122 34.1987 15.0373C34.4257 14.9744 34.6533 14.9058 34.8817 14.8306C34.7455 14.8769 34.6102 14.9133 34.4768 14.9526Z" fill="white"/>
<path d="M31.4847 15.6219L31.3603 15.6427C31.6403 15.6001 31.9203 15.5571 32.2098 15.5032C31.9629 15.5486 31.724 15.585 31.4847 15.6219Z" fill="white"/>
<path d="M32.9618 15.3419C32.898 15.3566 32.8308 15.3741 32.7669 15.3873C33.0157 15.3348 33.2669 15.2842 33.5209 15.217C33.3331 15.2634 33.1482 15.3017 32.9618 15.3419Z" fill="white"/>
<path d="M36.8545 14.1165L36.8432 14.1217L36.9132 14.0938L36.8545 14.1165Z" fill="white"/>
<path d="M19.5143 38.4419L19.1009 37.9458C18.9798 37.801 18.7897 37.7343 18.6047 37.7708C18.4198 37.8072 18.2694 37.9415 18.2122 38.1217L17.7888 39.4958C16.8589 39.816 15.8151 40.1882 14.73 40.6011C10.9276 42.0272 6.63952 43.887 5.05879 45.4682C2.53776 47.9892 1.38035 56.6894 1.03932 59.8305C1.01047 60.12 1.1046 60.4085 1.29947 60.6247C1.49434 60.8413 1.77151 60.9652 2.0624 60.9671H5.16238C4.87101 60.9652 4.59384 60.8413 4.39944 60.6247C4.20457 60.4085 4.10997 60.12 4.1393 59.8305C4.48032 56.6894 5.63726 47.9892 8.15877 45.4682C9.7395 43.887 14.0276 42.0272 17.83 40.6011C18.915 40.1882 19.9584 39.816 20.8883 39.4958L21.3121 38.1217C21.3689 37.9415 21.5193 37.8072 21.7042 37.7708C21.8892 37.7343 22.0798 37.801 22.2009 37.9458L22.6138 38.4419C22.7382 38.1217 22.8517 37.801 22.9652 37.4808C23.2131 36.7472 23.4094 36.0548 23.5338 35.6106C22.0864 34.4215 21.0463 32.8105 20.5577 31.0023C20.2162 29.6519 20.053 28.2623 20.072 26.8693H19.3076C18.2533 26.8702 17.3674 26.078 17.2515 25.0298L16.683 19.8638C16.6745 19.7882 16.6712 19.7125 16.6726 19.6363C16.6759 19.0049 16.9644 18.4085 17.4582 18.014C16.3628 14.5323 15.2881 9.17995 19.5247 4.94338C22.19 2.53586 25.6329 1.16703 29.2238 1.08709C28.9665 1.07385 28.7073 1.05209 28.4519 1.04784L27.7907 1.0379C27.2638 1.0275 26.7369 1.04784 26.2099 1.07905C22.5831 1.29616 18.9254 2.44316 16.4247 4.94338C12.1882 9.17995 13.2628 14.5323 14.3582 18.014C13.8649 18.4085 13.5759 19.0049 13.5731 19.6363C13.5712 19.7125 13.5745 19.7882 13.5835 19.8638L14.1515 25.0298C14.2674 26.078 15.1538 26.8702 16.2076 26.8693H16.9725C16.9725 26.3731 16.9829 25.8566 17.0032 25.3297C16.9933 25.5052 16.9933 25.6916 16.9933 25.867C16.9725 26.2081 16.9725 26.5387 16.9725 26.8693C16.9535 28.2623 17.1167 29.6519 17.4582 31.0023C17.9463 32.8105 18.9865 34.4215 20.4338 35.6106C20.3099 36.0548 20.1136 36.7472 19.8657 37.4808C19.7517 37.801 19.6382 38.1217 19.5143 38.4419Z" fill="white"/>
<path d="M20.1031 25.3296C20.0823 25.8565 20.0719 26.3731 20.0719 26.8693C20.0719 26.5386 20.0719 26.208 20.0927 25.8669C20.0927 25.6915 20.0927 25.5051 20.1031 25.3296Z" fill="white"/>
<path d="M27.7769 2.07076C25.6546 2.02819 23.5403 2.35266 21.5278 3.02857C19.5653 3.66663 17.819 4.83728 16.4838 6.41044C15.2517 7.92165 14.5332 9.7857 14.4315 11.733C14.3719 13.7607 14.6812 15.7827 15.3439 17.6998L13.3725 18.3199C12.6327 16.1607 12.2926 13.8846 12.3693 11.6039C12.4979 9.2219 13.3796 6.94256 14.887 5.09411C16.462 3.2277 18.5243 1.83474 20.8438 1.07181C23.0848 0.316916 25.4399 -0.0439751 27.8039 0.00426985L27.7769 2.07076Z" fill="white"/>
<path d="M19.4499 3.6208C19.6959 3.69505 19.9603 3.67945 20.1963 3.57728C20.4252 3.45903 20.605 3.26321 20.7033 3.02435L20.7549 2.83752C20.7686 2.76941 20.7733 2.69988 20.7696 2.63083C20.7748 2.56508 20.771 2.49886 20.7573 2.43454C20.7431 2.3669 20.7246 2.30021 20.7014 2.23493C20.5988 1.97905 20.3978 1.77519 20.1433 1.66877C20.0114 1.61958 19.8704 1.59876 19.7299 1.60775C19.2891 1.6314 18.9046 1.91614 18.7537 2.33142C18.6771 2.59441 18.7078 2.87726 18.8393 3.11753C18.9793 3.35024 19.195 3.52809 19.4499 3.6208Z" fill="#428DFF"/>
<path d="M18.4003 36.7523C17.8403 36.8644 17.3872 37.2754 17.2212 37.8217L16.9539 38.6968C12.2141 40.3584 6.37221 42.6968 4.32842 44.7406C1.70286 47.3648 0.496732 55.2509 0.0114443 59.7164C-0.0500444 60.2987 0.138206 60.879 0.528895 61.3147C0.920058 61.7498 1.47724 61.9991 2.06233 62H53.5189C54.1049 62 54.6635 61.7512 55.0556 61.3151C55.4477 60.8795 55.636 60.2973 55.574 59.7145C55.0883 55.2476 53.8826 47.3619 51.2571 44.7373C49.2133 42.6935 43.3709 40.3551 38.6315 38.6939L38.3638 37.8198C38.142 37.0484 37.3554 36.5853 36.5731 36.7646C36.4761 36.4619 36.3863 36.1738 36.311 35.9217C37.6529 34.6607 38.6235 33.0564 39.1173 31.2822C39.4087 30.1707 39.5742 29.0293 39.6101 27.8809C41.0949 27.7745 42.292 26.6232 42.4557 25.1437L43.0199 20.0061C43.0355 19.8836 43.0431 19.7601 43.0417 19.6362C43.0407 18.9499 42.8104 18.283 42.3875 17.7424C43.185 15.0932 44.6418 8.96983 39.8868 4.21487C36.1474 0.474463 30.7146 -0.0217039 27.7906 0.00431061H27.7722C26.3347 -0.011771 24.8997 0.112625 23.4869 0.376554C23.2092 0.422907 22.9633 0.582777 22.8086 0.818326C22.6535 1.0534 22.6038 1.34287 22.671 1.61626C22.8034 2.1531 23.3256 2.49839 23.8714 2.41088C25.1589 2.16918 26.4672 2.05519 27.7769 2.0708H27.8228C32.2036 2.02019 36.0887 3.33227 38.4258 5.67404C41.8356 9.08382 41.4326 13.3502 40.5575 16.6006C40.3584 16.559 40.1555 16.5377 39.9521 16.5367C39.4422 16.5391 38.9423 16.6786 38.5052 16.9416C38.4475 16.6469 38.3917 16.3556 38.3279 16.0415C38.1231 13.8501 38.1231 12.4179 38.1231 12.4033C38.1235 12.022 37.9135 11.6716 37.5772 11.4913C37.2405 11.3116 36.8328 11.3315 36.5154 11.5438C36.3531 11.6522 36.1805 11.7505 35.9989 11.8537C31.4132 14.5185 26.0264 15.4574 20.8098 14.501C20.5009 14.4234 20.1736 14.4925 19.9224 14.6883C19.6713 14.8841 19.5242 15.1849 19.5246 15.5032C19.4948 16.8617 19.1406 18.1931 18.4912 19.3865C18.4831 17.811 17.2046 16.5377 15.6291 16.5367C15.4285 16.5381 15.2285 16.5594 15.0317 16.6006C14.5729 15.0217 14.3705 13.38 14.4315 11.7368C14.5322 9.78858 15.2512 7.92311 16.4838 6.41048L17.1148 5.71614C17.479 5.31504 17.4903 4.70678 17.1417 4.29244C16.9558 4.07533 16.6858 3.9481 16.4001 3.94242C16.1144 3.93722 15.84 4.05358 15.6456 4.26358L14.887 5.09936C13.3796 6.9478 12.4979 9.22714 12.3692 11.6091C12.2931 13.6799 12.575 15.7487 13.2031 17.7239C12.7732 18.2688 12.5395 18.9423 12.5395 19.6362C12.5376 19.7502 12.5433 19.8642 12.5561 19.9773L13.1246 25.1437C13.2878 26.6237 14.4849 27.7754 15.9701 27.8819C16.0061 29.0312 16.1716 30.173 16.4639 31.2855C16.9577 33.0583 17.9274 34.6622 19.2683 35.9227C19.194 36.1757 19.1042 36.4643 19.0058 36.7656C18.8071 36.7206 18.6009 36.7159 18.4003 36.7523ZM27.7906 39.2681C30.1816 39.1896 32.5139 38.5085 34.5719 37.2887C34.6702 37.5985 34.7786 37.9159 34.8954 38.2422L33.3454 40.128C29.8193 41.7371 25.7691 41.7371 22.2429 40.128L20.6929 38.2413C20.8098 37.9159 20.9185 37.5942 21.0164 37.2887C23.0721 38.508 25.402 39.1887 27.7906 39.2681ZM20.7923 41.6213L20.8221 41.6582L24.6906 46.3554V52.4816L18.8899 39.4294L18.9159 39.3429L20.7923 41.6213ZM29.1793 45.1838C28.9499 45.461 28.8241 45.8096 28.8236 46.1695V59.9335H26.7571V46.1695C26.7571 45.8101 26.6318 45.4619 26.4029 45.1848L24.6755 43.0913C26.7306 43.5113 28.8501 43.5113 30.9057 43.0913L29.1793 45.1838ZM30.8901 46.3554L34.7587 41.6582L34.789 41.6213L36.6653 39.3481L36.6909 39.4346L30.8901 52.4816V46.3554ZM14.3582 50.6341C15.4995 50.6341 16.4247 51.5593 16.4247 52.7006C16.4247 53.8419 15.4995 54.7671 14.3582 54.7671C13.2168 54.7671 12.2917 53.8419 12.2917 52.7006C12.2917 51.5593 13.2168 50.6341 14.3582 50.6341ZM2.06233 59.9335C2.65215 54.5027 3.94057 48.0407 5.78192 46.1913C6.98331 45.1923 8.32708 44.3783 9.76828 43.7762C9.67463 45.9047 10.2493 48.009 11.4114 49.7941C10.0265 51.1941 9.82173 53.376 10.9214 55.0092C12.0211 56.6425 14.1203 57.273 15.938 56.5167C17.7557 55.7599 18.7872 53.8263 18.4037 51.8951C18.0196 49.9639 16.3272 48.5718 14.3582 48.5676C13.9646 48.5733 13.5744 48.6357 13.1989 48.7535C12.0325 47.0063 11.5912 44.874 11.9682 42.8071C13.5025 42.1614 15.2748 41.4827 17.2316 40.7874L23.792 55.5461C23.9641 55.9344 24.2895 56.2338 24.6906 56.3729V59.9335H2.06233ZM53.5189 59.9335H30.8901V56.3686C31.2917 56.2296 31.6176 55.9302 31.7902 55.5423L38.3496 40.7874C39.1934 41.0858 40.0027 41.3824 40.7723 41.6738C41.18 42.9296 41.4666 44.2218 41.6289 45.5319C40.1905 45.8313 39.1589 47.0985 39.1566 48.5676C39.1599 48.8358 39.1987 49.1021 39.272 49.3603C35.6432 51.564 33.8487 53.6305 33.9972 55.5092C34.1098 56.9234 35.2374 58.0425 37.3459 58.8343C37.6955 58.98 38.0961 58.9232 38.3913 58.6863C38.6864 58.4488 38.8278 58.07 38.7611 57.6972C38.694 57.325 38.4286 57.019 38.0696 56.8998C36.8119 56.4277 36.0968 55.8758 36.0547 55.3498C35.9946 54.6011 37.1241 53.053 40.4294 51.0659C40.9582 51.4566 41.5986 51.6676 42.2561 51.6676H43.2895C43.9465 51.6657 44.5855 51.4538 45.1134 51.0621C48.4196 53.0487 49.5481 54.5968 49.4881 55.346C49.4455 55.8758 48.7308 56.4277 47.4731 56.8955C47.1141 57.0147 46.8488 57.3207 46.7816 57.6935C46.7145 58.0657 46.8564 58.445 47.1515 58.682C47.4462 58.919 47.8473 58.9757 48.1963 58.8301C50.3063 58.0387 51.4325 56.9196 51.5451 55.5049C51.6941 53.6276 49.9034 51.5602 46.2703 49.3561C46.3446 49.0997 46.3843 48.8344 46.389 48.5676C46.3824 47.0204 45.2359 45.7155 43.7029 45.5092C43.6036 44.5387 43.4329 43.5771 43.1926 42.6316C46.5338 44.0141 48.8524 45.2571 49.7941 46.1984C51.6364 48.044 52.9248 54.506 53.5189 59.9335ZM43.2895 49.6011H42.2561C41.6856 49.6011 41.223 49.1385 41.223 48.5676C41.223 47.9972 41.6856 47.5346 42.2561 47.5346H43.2895C43.86 47.5346 44.3225 47.9972 44.3225 48.5676C44.3225 49.1385 43.86 49.6011 43.2895 49.6011ZM39.9521 18.6032C40.1773 18.6027 40.3958 18.6789 40.5722 18.8189C40.8219 19.0176 40.97 19.3174 40.9752 19.6362L40.4024 24.9186C40.3523 25.3443 40.0401 25.6929 39.6224 25.7893C39.5647 24.1098 39.4091 22.4344 39.1566 20.7728V19.3988C39.1566 19.1878 39.2403 18.9854 39.3893 18.8359C39.5387 18.6869 39.7412 18.6032 39.9521 18.6032ZM19.8032 21.2515C19.8084 21.2576 19.8108 21.2657 19.816 21.2718C20.2105 21.6833 20.8641 21.697 21.2756 21.303C22.8824 19.7644 23.9849 20.4526 24.1164 20.5458C24.5681 20.8395 25.1698 20.7369 25.4985 20.3098C25.8272 19.8827 25.7724 19.2744 25.3727 18.913C24.0237 18.0068 22.2543 18.0304 20.9299 18.9721C21.2056 18.2499 21.4 17.4993 21.5093 16.734C26.5287 17.4212 31.637 16.5206 36.1185 14.159C36.1516 14.754 36.2023 15.4838 36.2798 16.3173C36.2869 16.3655 36.2969 16.4123 36.3096 16.4592C36.3096 16.4767 36.3096 16.4951 36.3181 16.514C36.6724 18.2702 36.9217 19.6878 37.1033 20.9928C37.31 22.3796 37.4424 23.6793 37.5167 24.8855C37.1416 25.1953 36.6455 25.5827 36.0358 26.0012C34.6546 26.9051 32.9642 27.2064 31.3555 26.8361L30.8263 25.4682C30.6205 24.9361 30.0222 24.6717 29.4901 24.877C29.0412 25.0548 28.7792 25.5235 28.8619 25.9994C28.1638 25.8135 27.4288 25.8135 26.7306 25.9994C26.812 25.524 26.5495 25.0567 26.1011 24.8793C25.569 24.6736 24.9711 24.938 24.7654 25.4701L24.237 26.8361C22.6293 27.2083 20.9394 26.9099 19.5563 26.0093C18.9448 25.5888 18.4467 25.2014 18.0716 24.8892C18.0986 24.4442 18.1369 23.974 18.1832 23.4788C18.7802 22.7807 19.3208 22.0357 19.7994 21.2515H19.8032ZM15.1826 24.9172L14.6145 19.7512C14.6145 19.7417 14.6145 19.6476 14.6145 19.6362C14.6178 19.3198 14.7626 19.0218 15.009 18.8232C15.1845 18.6813 15.4035 18.6037 15.6291 18.6032C16.0685 18.6032 16.4247 18.9594 16.4247 19.3988V20.7728C16.3145 21.5012 16.2232 22.2244 16.1508 22.9429C16.0477 23.9896 15.9815 24.9266 15.9545 25.7912C15.5378 25.6924 15.2275 25.3428 15.1783 24.9172H15.1826ZM18.4571 30.7222C18.1856 29.6508 18.0413 28.5511 18.0281 27.4458C18.1473 27.5304 18.2589 27.6132 18.3866 27.7007C20.3983 29.0203 22.8871 29.3897 25.1948 28.7115C25.2549 28.7006 25.314 28.6845 25.3717 28.6637C25.9029 28.5171 26.4213 28.3279 26.9217 28.0975C27.478 27.8331 28.1241 27.836 28.6779 28.1051C29.1807 28.3355 29.701 28.5251 30.2341 28.6722C30.271 28.685 30.3088 28.6959 30.3466 28.7044C31.1285 28.922 31.9354 29.036 32.7471 29.043C34.334 29.0577 35.8877 28.589 37.2026 27.6998C37.3294 27.6132 37.4424 27.5304 37.5612 27.4458C37.547 28.5502 37.4032 29.6494 37.1322 30.7203C36.698 32.3261 35.7747 33.7573 34.49 34.8149C32.5546 36.2784 30.2156 37.1118 27.7906 37.2016C25.3642 37.1175 23.0233 36.2826 21.0907 34.813C19.8084 33.7559 18.8866 32.3265 18.4528 30.7222H18.4571Z" fill="#428DFF"/>
<path d="M24.6906 22.7361C24.6906 23.3065 24.2281 23.7691 23.6576 23.7691C23.0867 23.7691 22.6241 23.3065 22.6241 22.7361C22.6241 22.1652 23.0867 21.7026 23.6576 21.7026C24.2281 21.7026 24.6906 22.1652 24.6906 22.7361Z" fill="#428DFF"/>
<path d="M32.9571 22.7361C32.9571 23.3065 32.4945 23.7691 31.9236 23.7691C31.3532 23.7691 30.8901 23.3065 30.8901 22.7361C30.8901 22.1652 31.3532 21.7026 31.9236 21.7026C32.4945 21.7026 32.9571 22.1652 32.9571 22.7361Z" fill="#428DFF"/>
<path d="M31.5277 20.5353C31.5372 20.5258 32.6643 19.6806 34.3538 21.3029C34.6187 21.5678 35.0065 21.669 35.367 21.5664C35.7274 21.4642 36.0041 21.1747 36.0902 20.8101C36.1763 20.4454 36.0585 20.0627 35.7818 19.8097C33.4055 17.5365 31.1247 18.2238 30.253 18.9077C29.8037 19.2601 29.7247 19.9095 30.0766 20.3588C30.429 20.8082 31.0784 20.8872 31.5277 20.5353Z" fill="#428DFF"/>
</svg>
