<svg width="63" height="62" viewBox="0 0 63 62" fill="none" xmlns="http://www.w3.org/2000/svg">
<path d="M52.486 24.2707L37.671 32.391L26.699 38.4038H26.689L26.637 38.435C25.0565 38.6105 23.2901 39.5303 22.6805 43.8383C21.6367 51.3286 19.5397 60.9679 16.4094 60.9679C15.9819 60.9688 15.5586 60.8917 15.159 60.7404C12.886 59.8725 11.9979 56.6594 11.4086 54.4901C10.5417 51.0429 9.94772 47.5333 9.6318 43.9934C9.19008 40.7079 8.13118 37.5355 6.51187 34.6435C5.01362 31.8334 3.13324 29.3226 1.95564 26.3265C-0.689464 19.5802 -1.30901 10.5406 4.32125 5.14725C7.03256 2.65159 10.5469 1.20773 14.2292 1.07673C15.517 1.00437 16.8081 1.0668 18.0826 1.26259C18.093 1.25266 18.1138 1.26259 18.1346 1.26259C20.9212 1.67924 23.5639 2.77172 25.8311 4.44495C26.1929 4.71357 26.5339 5.00253 26.8645 5.30237C27.0399 5.13685 27.2263 4.9822 27.4121 4.82708C30.2757 2.55511 33.7821 1.2432 37.4336 1.07673C41.8153 0.723448 46.1487 2.19616 49.4077 5.14725C54.4804 10.0132 54.4804 17.8341 52.486 24.2707Z" fill="#CAD9FC"/>
<path d="M50.4198 24.2707L37.671 32.3909L28.2904 38.3626C28.2904 38.3626 27.5465 38.373 26.699 38.4037H26.689C26.0279 38.4245 25.3043 38.4558 24.7878 38.4865C23.1558 38.6104 21.2234 39.5303 20.6142 43.8382C19.6636 50.6569 17.8348 59.2629 15.159 60.7403C12.886 59.8725 11.9979 56.6594 11.4086 54.49C10.5417 51.0428 9.94772 47.5332 9.6318 43.9933C9.19008 40.7079 8.13118 37.5354 6.51187 34.6435C5.01362 31.8333 3.13324 29.3225 1.95564 26.3265C-0.689464 19.5801 -1.30901 10.5405 4.32125 5.14718C7.03256 2.65152 10.5469 1.20766 14.2292 1.07666C16.7915 1.22138 19.3226 0.849653 21.5539 2.01685C22.732 2.62646 23.8268 2.34743 24.7982 3.23607C25.1288 2.93623 25.4698 4.71351 25.8311 4.44488C26.0175 4.30016 26.2137 4.16585 26.41 4.03154C26.6271 4.18666 26.8333 4.36212 27.1123 4.5896C27.2159 4.67189 27.3086 4.75465 27.4121 4.82701C30.2757 2.55504 33.7821 1.24313 37.4336 1.07666C41.1158 1.20766 44.6302 2.65152 47.341 5.14718C52.4141 10.0132 52.4141 17.834 50.4198 24.2707Z" fill="#E8EDFC"/>
<path d="M59.7597 39.6439C58.9264 41.4047 57.9919 43.1157 56.9595 44.7681C55.9592 46.5468 55.3071 48.5 55.038 50.5228C54.8445 52.7006 54.478 54.86 53.9431 56.9797C53.5194 58.5399 52.8374 60.9679 50.8643 60.9679C50.3995 60.9679 49.9653 60.6166 49.5728 60.0174C48.3535 58.1677 47.4961 53.9217 47.0104 50.4296C46.6694 48.0536 45.6574 47.3716 44.7479 47.1858C44.6448 47.165 44.5412 47.1446 44.4381 47.1342H44.4277C43.838 47.1773 43.2851 47.4388 42.8779 47.8677C42.2806 48.5956 41.9236 49.4904 41.8555 50.4296C41.2146 55.0374 39.9231 60.9679 37.9911 60.9679C37.2709 60.9604 36.5979 60.6066 36.1831 60.0174C35.5702 59.0961 35.1417 58.0646 34.9228 56.9797C34.334 54.8723 36.142 52.6921 35.8942 50.5228C35.6203 48.501 34.9682 46.5487 33.9726 44.7681C32.9412 43.1138 32.0029 41.4028 31.1625 39.6439C29.5403 35.501 29.1582 29.9323 32.6191 26.6161C34.0346 25.2626 33.8071 24.4671 35.7494 24.1985C36.2593 24.1275 36.7738 24.093 37.2888 24.0954C39.2529 24.0854 41.1849 24.5952 42.8884 25.5723C43.4379 25.8996 43.9534 26.2803 44.4277 26.7088C45.9856 25.3396 47.918 24.4685 49.9757 24.2089C51.1528 24.0433 52.3489 24.0641 53.5194 24.2708C55.3127 24.556 56.9794 25.3727 58.3026 26.6161C61.7739 29.9323 61.3918 35.501 59.7597 39.6439Z" fill="#E8EDFC"/>
<path d="M56.6601 39.6437C55.8273 41.4044 54.8923 43.1155 53.8603 44.7679C52.8601 46.5466 52.2079 48.4998 51.9388 50.5226C51.7449 52.7004 51.3789 54.8598 50.8435 56.9795C50.616 58.0635 50.1852 59.0945 49.5727 60.0171C48.3535 58.1675 47.4961 53.9215 47.0104 50.4294C46.6694 48.0534 45.6573 47.3714 44.7479 47.1856C44.6424 47.1624 44.5356 47.1454 44.4277 47.134C44.2499 47.134 44.0754 47.1 43.8999 47.0862C43.4048 47.0479 42.9072 47.038 42.4111 47.0574C41.9254 47.0583 41.4412 47.1061 40.9649 47.2012C40.7488 47.2489 40.5402 47.326 40.3449 47.4291C39.9297 47.6703 39.5896 48.0217 39.3631 48.445C39.2155 48.7131 39.0968 48.9959 39.0089 49.2892C38.954 49.4637 38.9058 49.6415 38.8694 49.8198C38.8145 50.0194 38.78 50.2232 38.7663 50.4294C38.2806 53.9215 37.4231 58.1675 36.1935 60.0171C35.5801 59.0959 35.1521 58.0644 34.9331 56.9795C34.3978 54.8598 34.0317 52.7004 33.8383 50.5226C33.5645 48.5008 32.9123 46.5485 31.9163 44.7679C30.8849 43.1136 29.947 41.4026 29.1062 39.6437C27.4845 35.5008 27.1019 29.9321 30.5633 26.6159C31.9977 25.2831 33.8166 24.4375 35.7598 24.1982C37.8469 24.4877 40.4698 23.7253 41.9784 25.0992C42.4532 24.665 42.3303 25.8928 42.8987 25.5721C43.4445 25.8999 43.9567 26.2806 44.4277 26.7086C45.9856 25.3394 47.918 24.4683 49.9757 24.2086C50.1251 24.2186 50.2736 24.2389 50.4198 24.2706C52.2131 24.5558 53.8797 25.3725 55.2035 26.6159C58.6748 29.9321 58.2922 35.5008 56.6601 39.6437Z" fill="white"/>
<path d="M6.51187 34.6435C8.13118 37.5355 9.19008 40.7079 9.6318 43.9934C9.94772 47.5333 10.5417 51.0429 11.4086 54.4901C11.9979 56.6594 12.886 59.8725 15.159 60.7403C15.5586 60.8917 15.9819 60.9688 16.4094 60.9678C16.8799 60.9428 17.3255 60.7465 17.6612 60.4159C15.8315 59.2558 15.0412 56.4537 14.5082 54.4901C13.6413 51.0429 13.0473 47.5333 12.7314 43.9934C12.2892 40.7079 11.2308 37.5355 9.61099 34.6435C8.11321 31.8333 6.23284 29.3226 5.05476 26.3265C2.41013 19.5802 1.79012 10.5405 7.42084 5.14723C9.99406 2.77453 13.3027 1.35526 16.7958 1.12731H16.7305C15.8986 1.05448 15.0629 1.03745 14.2292 1.07671C10.5469 1.20771 7.03256 2.65157 4.32125 5.14723C-1.30901 10.5405 -0.689464 19.5802 1.95564 26.3265C3.13324 29.3226 5.01362 31.8333 6.51187 34.6435Z" fill="white"/>
<path d="M2.02706 26.7038C0.249312 22.3647 -0.348946 17.6325 0.293295 12.9879C0.646102 10.7538 1.46427 8.61894 2.69437 6.72059C3.12474 6.09632 3.60193 5.50516 4.12215 4.95324C6.21724 2.76357 8.90396 1.23033 11.8551 0.540319C14.7593 -0.142122 17.7823 -0.145905 20.6885 0.528968C23.6221 1.1731 26.3428 2.55453 28.594 4.54274L27.2012 6.06463C23.0924 2.59095 17.5733 1.28613 12.3436 2.55217C9.78172 3.14759 7.44875 4.47606 5.62844 6.3744C4.73129 7.30986 4.00202 8.3924 3.47234 9.5752C2.91381 10.766 2.53121 12.0311 2.33589 13.3317C1.75655 17.6065 2.31366 21.9585 3.95048 25.9495L2.02706 26.7038Z" fill="white"/>
<path d="M1.07035 15.2103C1.62604 15.2472 2.11647 14.8485 2.19309 14.2966C2.22194 13.9731 2.26781 13.651 2.33071 13.3318C2.52839 12.0312 2.91289 10.7662 3.47237 9.57531C4.00158 8.3892 4.73178 7.30335 5.63035 6.36552C7.45161 4.46859 9.78459 3.14249 12.346 2.54802C17.5742 1.28293 23.0924 2.58774 27.2003 6.06048C27.6061 6.46058 33.8062 12.4105 39.2619 12.4105C39.8328 12.4105 40.2953 11.9475 40.2953 11.3772C40.2953 10.8064 39.8328 10.3438 39.2619 10.3438C35.6346 10.3438 31.2831 6.91412 29.4784 5.34163C35.3011 0.861071 44.6467 1.01667 49.7279 5.89306C53.6353 9.64058 54.7438 16.0441 52.7694 23.1404C49.8112 22.825 46.8416 23.6233 44.441 25.3802C40.1889 22.1279 33.5839 22.2811 29.8449 25.8678C26.6498 28.93 26.3935 33.5492 27.3653 37.5421C24.7879 38.0136 23.2102 40.0671 22.697 43.6945C20.9004 56.5407 18.4742 59.9345 17.4423 59.9345C15.1694 59.9345 14.1847 56.9858 13.437 54.213C12.5872 50.8197 12.0036 47.3654 11.691 43.8818C11.2436 40.4634 10.1459 37.1628 8.45612 34.1578C7.90232 33.1164 7.29365 32.1124 6.69965 31.141C5.63461 29.4924 4.71334 27.7558 3.9453 25.9496C3.47047 24.7082 3.07321 23.4379 2.75729 22.1468C2.62062 21.5977 2.06729 21.261 1.51679 21.3915C0.966301 21.5216 0.622953 22.0706 0.746861 22.623C1.08501 24.0087 1.51065 25.3717 2.02188 26.704C2.83296 28.6193 3.80673 30.4614 4.93325 32.2103C5.50645 33.1576 6.0995 34.137 6.62729 35.1288C8.1927 37.9034 9.21281 40.9515 9.63278 44.1088C9.952 47.7016 10.5578 51.2628 11.445 54.7587C12.1256 57.2899 13.3954 62.0007 17.4423 62.0007C20.6161 62.0007 23.0707 55.9382 24.7363 43.983C25.2972 40.0231 27.0092 39.6344 27.87 39.5289C27.904 39.5289 27.9319 39.5426 27.965 39.5478C28.0227 39.7077 28.0785 39.8699 28.1395 40.026C28.6475 41.2272 29.2575 42.3826 29.9641 43.4788C30.3164 44.0615 30.6707 44.6451 30.997 45.2537C31.9348 46.9171 32.5463 48.744 32.7989 50.6362C32.9805 52.4589 33.26 54.2702 33.6369 56.0621C33.643 56.0863 33.6369 56.1108 33.6459 56.1345C33.6553 56.1586 33.6624 56.1771 33.6709 56.2007C33.7513 56.5502 33.8247 56.9002 33.9221 57.2473C34.3349 58.79 35.2009 61.9998 37.9964 61.9998C38.8964 61.9998 41.2861 61.9998 42.878 50.57C43.1717 48.5037 43.9496 48.2413 44.4131 48.1741L44.5413 48.1973C44.8515 48.2611 45.6777 48.4295 45.988 50.5733C47.577 62.0007 49.9653 62.0007 50.8644 62.0007C53.6537 62.0007 54.4885 58.9106 54.9377 57.2577C55.4882 55.0836 55.8652 52.8698 56.0652 50.6362C56.3201 48.7421 56.9335 46.9137 57.8732 45.2495C58.1986 44.6347 58.5547 44.0459 58.9061 43.458C59.6079 42.367 60.2138 41.2168 60.716 40.0208C62.4498 35.6206 62.9128 29.5921 59.0144 25.8669C57.825 24.7484 56.3769 23.942 54.7996 23.5197C56.9141 15.7433 55.5866 8.65168 51.1515 4.39813C45.1849 -1.33049 34.5501 -1.44825 27.8979 3.96445C25.7876 2.28507 23.3218 1.10983 20.6885 0.529073C17.7819 -0.144855 14.7594 -0.139652 11.8551 0.543734C8.90446 1.2328 6.21774 2.76462 4.12217 4.95335C3.60195 5.50526 3.12476 6.09643 2.69439 6.7207C1.4643 8.61904 0.646127 10.7539 0.293319 12.988C0.234203 13.3474 0.162317 13.7111 0.139144 14.0672C0.103201 14.3439 0.182653 14.6229 0.359057 14.839C0.534988 15.0552 0.792262 15.1895 1.07035 15.2103ZM58.7978 39.2716C58.3367 40.3584 57.7838 41.4036 57.1444 42.3958C56.7685 43.0158 56.3925 43.6359 56.0515 44.2838C54.9888 46.1774 54.2974 48.2564 54.0132 50.4092C53.8235 52.5345 53.4674 54.6414 52.9481 56.711C52.5215 58.2702 51.9767 59.9345 50.8861 59.9345C50.4728 59.8073 49.0739 57.76 48.0334 50.281C47.6915 47.9045 46.6562 46.5193 44.9504 46.1712C44.8161 46.1419 44.6803 46.1192 44.5436 46.1041C44.5053 46.1055 44.4675 46.1088 44.4297 46.1145C44.3899 46.1083 44.3502 46.1046 44.31 46.1031C42.3649 46.3197 41.1939 47.7248 40.8326 50.281C39.7902 57.7652 38.3851 59.8115 37.9964 59.9345C36.8774 59.9345 36.3364 58.2712 35.9136 56.7048C35.3967 54.6348 35.0415 52.5279 34.8519 50.403C34.5709 48.2498 33.8805 46.1703 32.8164 44.2771C32.4754 43.6368 32.1027 43.0201 31.7296 42.4053C31.0873 41.4098 30.5312 40.3617 30.0672 39.2716C28.5855 35.4924 28.1249 30.3786 31.277 27.3599C34.4291 24.3407 40.3606 24.3927 43.7345 27.4692C44.0381 27.7647 47.9355 31.481 51.4281 31.481C51.9989 31.481 52.4615 31.0185 52.4615 30.4477C52.4615 29.8773 51.9989 29.4148 51.4281 29.4148C49.6556 29.4148 47.4106 27.8825 46.0499 26.7593C48.2089 25.3641 50.8166 24.8382 53.3477 25.2885C54.9387 25.5396 56.4171 26.2622 57.5933 27.3627C60.7515 30.3867 60.2171 35.6632 58.7978 39.2716Z" fill="#428DFF"/>
<path d="M0.622899 19.2287C0.683907 19.2623 0.749172 19.2869 0.817274 19.3025C0.878282 19.3252 0.942601 19.3389 1.00834 19.3427C1.07691 19.3475 1.14596 19.3475 1.21501 19.3427C1.486 19.3054 1.73476 19.1715 1.91542 18.9653C2.2583 18.5373 2.20958 17.9164 1.80381 17.547C1.70071 17.4609 1.58248 17.3942 1.45573 17.3507C1.32899 17.3034 1.19467 17.2803 1.05989 17.2826C0.784168 17.2954 0.524529 17.4155 0.336775 17.6175C0.151386 17.8322 0.0596372 18.1122 0.081392 18.3954C0.112606 18.674 0.245499 18.9313 0.454535 19.1186L0.622899 19.2287Z" fill="#428DFF"/>
<path d="M10.2693 8.94817C10.7659 8.6909 10.9673 8.08507 10.7243 7.5814C10.4807 7.07773 9.88055 6.85923 9.37025 7.0886C9.3012 7.12266 2.1727 10.6777 4.94645 20.8613C5.09684 21.4118 5.66531 21.7362 6.2158 21.5859C6.76629 21.4359 7.09072 20.8675 6.94033 20.317C4.63337 11.8595 10.0243 9.07113 10.2693 8.94817Z" fill="#428DFF"/>
<path d="M34.0129 28.486C32.4281 29.3846 29.9031 32.4468 31.6955 37.6046C31.8161 37.9541 32.114 38.2123 32.4772 38.2823C32.8405 38.3518 33.2131 38.2222 33.4548 37.9423C33.696 37.6623 33.7693 37.2745 33.6468 36.9255C31.9939 32.173 34.8972 30.364 35.0396 30.2794C35.5347 29.9961 35.7064 29.3647 35.4231 28.8691C35.1394 28.3739 34.508 28.2022 34.0129 28.486Z" fill="#428DFF"/>
<path d="M14.4671 6.21135C14.4671 6.78218 14.0045 7.24471 13.4337 7.24471C12.8633 7.24471 12.4008 6.78218 12.4008 6.21135C12.4008 5.64099 12.8633 5.17847 13.4337 5.17847C14.0045 5.17847 14.4671 5.64099 14.4671 6.21135Z" fill="#428DFF"/>
<path d="M38.229 27.9076C38.229 28.478 37.7665 28.9405 37.1957 28.9405C36.6253 28.9405 36.1628 28.478 36.1628 27.9076C36.1628 27.3368 36.6253 26.8743 37.1957 26.8743C37.7665 26.8743 38.229 27.3368 38.229 27.9076Z" fill="#428DFF"/>
</svg>
