<svg width="62" height="62" viewBox="0 0 62 62" fill="none" xmlns="http://www.w3.org/2000/svg">
<path d="M60.9669 3.1001V39.3492H59.4683C59.2839 39.2948 59.0923 39.2674 58.8998 39.2664H56.8331V5.16673H58.8998C59.448 5.16957 59.974 4.94962 60.3571 4.55701C60.7493 4.17433 60.9697 3.64833 60.9669 3.1001Z" fill="#E8EDFC"/>
<path d="M49.2795 28.1481L48.2875 32.1262C47.8429 33.893 46.255 35.1318 44.4334 35.1332C43.9003 35.1328 43.3728 35.024 42.8833 34.813C41.7367 34.3282 40.8833 33.3334 40.5792 32.1262L39.5868 28.1481C39.5106 27.8397 39.5806 27.5133 39.7765 27.2631C39.9718 27.0133 40.2717 26.8667 40.5891 26.8667H48.2771C48.595 26.8667 48.8949 27.0133 49.0903 27.2631C49.2861 27.5133 49.3561 27.8397 49.2795 28.1481Z" fill="#7FACFA"/>
<path d="M46.1798 28.1481L45.1878 32.1262C44.8832 33.3334 44.0303 34.3282 42.8833 34.813C41.7367 34.3282 40.8833 33.3334 40.5792 32.1262L39.5868 28.1481C39.5106 27.8397 39.5806 27.5133 39.7765 27.2631C39.9718 27.0133 40.2717 26.8667 40.5891 26.8667H45.1774C45.4948 26.8667 45.7947 27.0133 45.9905 27.2631C46.1859 27.5133 46.2559 27.8397 46.1798 28.1481Z" fill="#A4C2F7"/>
<path d="M59.4683 35.2161H56.8331V35.1333H42.3667C41.2267 35.1366 40.3034 36.06 40.3 37.1999V58.8998C40.3034 60.0398 41.2267 60.9632 42.3667 60.9665H58.8998C60.0397 60.9632 60.9631 60.0398 60.9664 58.8998V37.1999C60.9655 36.2785 60.3543 35.4696 59.4683 35.2161Z" fill="#CAD9FC"/>
<path d="M56.3681 35.2161H53.7334V35.1333H42.3667C41.2267 35.1366 40.3034 36.06 40.3 37.1999V58.8998C40.3034 60.0398 41.2267 60.9632 42.3667 60.9665H55.8C56.94 60.9632 57.8634 60.0398 57.8667 58.8998V37.1999C57.8653 36.2785 57.2541 35.4696 56.3681 35.2161Z" fill="#E8EDFC"/>
<path d="M45.4664 39.2666H55.8001C56.3705 39.2666 56.8332 39.7292 56.8332 40.3002V42.3668C56.8332 42.9373 56.3705 43.3999 55.8001 43.3999H45.4664C44.896 43.3999 44.4333 42.9373 44.4333 42.3668V40.3002C44.4333 39.7292 44.896 39.2666 45.4664 39.2666Z" fill="#CAD9FC"/>
<path d="M45.4664 47.5334H55.8001C56.3705 47.5334 56.8332 47.9961 56.8332 48.5665V50.6332C56.8332 51.2041 56.3705 51.6667 55.8001 51.6667H45.4664C44.896 51.6667 44.4333 51.2041 44.4333 50.6332V48.5665C44.4333 47.9961 44.896 47.5334 45.4664 47.5334Z" fill="#CAD9FC"/>
<path d="M45.4664 39.2666H52.6999C53.2708 39.2666 53.7334 39.7292 53.7334 40.3002V42.3668C53.7334 42.9373 53.2708 43.3999 52.6999 43.3999H45.4664C44.896 43.3999 44.4333 42.9373 44.4333 42.3668V40.3002C44.4333 39.7292 44.896 39.2666 45.4664 39.2666Z" fill="#E8EDFC"/>
<path d="M45.4664 47.5334H52.6999C53.2708 47.5334 53.7334 47.9961 53.7334 48.5665V50.6332C53.7334 51.2041 53.2708 51.6667 52.6999 51.6667H45.4664C44.896 51.6667 44.4333 51.2041 44.4333 50.6332V48.5665C44.4333 47.9961 44.896 47.5334 45.4664 47.5334Z" fill="#E8EDFC"/>
<path d="M16.5336 49.4275H20.6668V59.9333H16.5336V49.4275Z" fill="#CAD9FC"/>
<path d="M16.5336 5.51074H20.6668V16.4465H16.5336V5.51074Z" fill="#CAD9FC"/>
<path d="M15.5 23.9392H21.6999V37.1143H15.5V23.9392Z" fill="#CAD9FC"/>
<path d="M30.2559 38.2127C30.2555 38.4482 30.2346 38.6833 30.194 38.9156L28.1893 50.9743C28.0204 51.9682 27.1614 52.6961 26.1539 52.6999H11.0465C10.0385 52.6961 9.17947 51.9682 9.0106 50.9743L7.00594 38.9156C6.79497 37.716 7.1275 36.4842 7.91414 35.5543C8.7003 34.6243 9.85921 34.0912 11.0772 34.1002H26.1227C28.3974 34.1002 30.2446 35.9379 30.2559 38.2127Z" fill="#CAD9FC"/>
<path d="M27.8998 58.8999C27.8917 60.038 26.9712 60.9585 25.8331 60.9665H11.3667C10.2267 60.9632 9.30336 60.0399 9.30005 58.8999C9.30856 57.7623 10.2286 56.8418 11.3667 56.8333H25.8331C26.9731 56.837 27.8965 57.7599 27.8998 58.8999Z" fill="#CAD9FC"/>
<path d="M24.8 58.8999C24.7915 60.038 23.871 60.9585 22.7334 60.9665H11.3667C10.2267 60.9632 9.30336 60.0399 9.30005 58.8999C9.30856 57.7623 10.2286 56.8418 11.3667 56.8333H22.7334C23.8734 56.837 24.7967 57.7599 24.8 58.8999Z" fill="#E8EDFC"/>
<path d="M27.8999 25.8332C27.897 26.3814 28.117 26.9074 28.5096 27.2905C28.6023 27.3847 28.7026 27.4712 28.8095 27.5488C28.5228 28.3771 27.7433 28.9324 26.8668 28.9333H10.3332C9.4572 28.9324 8.67719 28.3771 8.39053 27.5488C8.49791 27.4712 8.59819 27.3847 8.69043 27.2905C9.08304 26.9074 9.30299 26.3814 9.30016 25.8332C9.29921 25.0957 8.90565 24.4146 8.2666 24.0456V18.6002C8.2666 15.7464 10.5802 13.4333 13.4334 13.4333H23.7666C26.6203 13.4333 28.9334 15.7464 28.9334 18.6002V24.0456C28.2948 24.4146 27.9008 25.0957 27.8999 25.8332Z" fill="#CAD9FC"/>
<path d="M27.1562 38.2127C27.1553 38.4482 27.1345 38.6833 27.0938 38.9156L25.0891 50.9743C24.9207 51.9682 24.0617 52.6961 23.0537 52.6999H11.0465C10.0385 52.6961 9.17947 51.9682 9.0106 50.9743L7.00594 38.9156C6.79497 37.716 7.1275 36.4842 7.91414 35.5543C8.7003 34.6243 9.85921 34.0912 11.0772 34.1002H23.0225C25.2972 34.1002 27.1444 35.9379 27.1562 38.2127Z" fill="#E8EDFC"/>
<path d="M24.8002 25.8332C24.7973 26.3814 25.0173 26.9074 25.4099 27.2905C25.5021 27.3847 25.6024 27.4712 25.7093 27.5488C25.4227 28.3771 24.6431 28.9324 23.7666 28.9333H10.3332C9.4572 28.9324 8.67719 28.3771 8.39053 27.5488C8.49791 27.4712 8.59819 27.3847 8.69043 27.2905C9.08304 26.9074 9.30299 26.3814 9.30016 25.8332C9.29921 25.0957 8.90565 24.4146 8.2666 24.0456V18.6002C8.2666 15.7464 10.5802 13.4333 13.4334 13.4333H20.6669C23.5202 13.4333 25.8332 15.7464 25.8332 18.6002V24.0456C25.1947 24.4146 24.8006 25.0957 24.8002 25.8332Z" fill="#E8EDFC"/>
<path d="M21.4209 9.29999H15.7791C15.185 9.30141 14.6188 9.04739 14.2252 8.60228C13.8317 8.15717 13.6486 7.56447 13.7229 6.97508L14.2394 2.84134C14.3728 1.80779 15.2531 1.03345 16.2957 1.03345H20.9043C21.9469 1.03345 22.8271 1.80779 22.9605 2.84134L23.4776 6.97508C23.5518 7.56447 23.3688 8.15717 22.9747 8.60228C22.5812 9.04739 22.015 9.30141 21.4209 9.29999Z" fill="#CAD9FC"/>
<path d="M18.3211 9.29999H15.7791C15.185 9.30141 14.6188 9.04739 14.2252 8.60228C13.8317 8.15717 13.6486 7.56447 13.7229 6.97508L14.2394 2.84134C14.3728 1.80779 15.2531 1.03345 16.2957 1.03345H17.8046C18.8467 1.03345 19.7274 1.80779 19.8608 2.84134L20.3774 6.97508C20.4516 7.56447 20.2686 8.15717 19.875 8.60228C19.4815 9.04739 18.9153 9.30141 18.3211 9.29999Z" fill="#E8EDFC"/>
<path d="M60.9665 3.10008C60.9698 3.64832 60.7494 4.17432 60.3573 4.55699C59.9741 4.9496 59.4481 5.16956 58.8999 5.16672H47.9366L47.0166 1.03345H58.8999C60.0399 1.03676 60.9632 1.9601 60.9665 3.10008Z" fill="#CAD9FC"/>
<path d="M57.8668 3.10008C57.8696 3.64832 57.6497 4.17432 57.2571 4.55699C56.8744 4.9496 56.3484 5.16956 55.8002 5.16672H47.9366L47.0166 1.03345H55.8002C56.9401 1.03676 57.8635 1.9601 57.8668 3.10008Z" fill="#E8EDFC"/>
<path d="M48.5562 4.47431L47.9365 5.16682L42.0876 11.6974C42.0256 11.4802 40.2102 12.3175 40.1066 12.1108L39.9127 10.2371C39.5919 9.58627 40.3516 8.45385 39.7935 8.06124L42.3875 5.16682L45.4768 1.71517C46.2389 0.865152 47.5458 0.793252 48.3963 1.55529C49.2463 2.31686 49.3182 3.62382 48.5562 4.47431Z" fill="#E8EDFC"/>
<path d="M40.5996 16.3993L40.5891 16.4092L38.9672 17.6703C38.6233 17.9347 38.1796 18.0312 37.7572 17.9333C37.3348 17.8349 36.9786 17.5525 36.7865 17.1637L36.7141 17.0085L33.2218 9.95105C33.026 9.56365 33.0156 9.1086 33.1944 8.71315C33.3732 8.31771 33.7213 8.02443 34.1414 7.91564L35.6603 7.51262L35.805 7.471L36.1252 7.37829C37.3887 7.04622 38.734 7.29645 39.7935 8.05991C40.3673 8.47002 40.8294 9.01684 41.1369 9.65163L41.8294 11.057C41.9349 11.2618 42.0215 11.4766 42.0877 11.6975C42.6222 13.4216 42.0286 15.2962 40.5996 16.3993Z" fill="#CAD9FC"/>
<path d="M37.4998 16.3991L37.4894 16.4091L36.7141 17.0084L33.2218 9.95088C33.026 9.56348 33.0156 9.10843 33.1944 8.71298C33.3732 8.31754 33.7213 8.02426 34.1414 7.91547L35.6603 7.51245C36.0283 7.64679 36.3759 7.83127 36.6938 8.05974C37.2676 8.46985 37.7293 9.01666 38.0372 9.65146L38.7292 11.0568C38.8347 11.2616 38.9213 11.4764 38.9875 11.6973C39.522 13.4214 38.9288 15.296 37.4998 16.3991Z" fill="#E8EDFC"/>
<path d="M9.30015 25.8333C9.30299 26.3815 9.08303 26.9075 8.69042 27.2906C8.59818 27.3848 8.4979 27.4713 8.39052 27.5489C8.04948 27.7802 7.64599 27.9027 7.23351 27.8999H3.10024C1.96026 27.8966 1.03692 26.9732 1.03361 25.8333C1.03029 25.285 1.25072 24.759 1.64286 24.3764C2.02601 23.9837 2.55201 23.7638 3.10024 23.7666H7.23351C8.37492 23.7666 9.30015 24.6919 9.30015 25.8333Z" fill="#CAD9FC"/>
<path d="M36.1668 25.8332C36.163 26.9732 35.2402 27.8966 34.1002 27.8999H29.9664C29.5544 27.9027 29.151 27.7802 28.8094 27.5489C28.7025 27.4713 28.6022 27.3848 28.5095 27.2906C28.1169 26.9075 27.897 26.3815 27.8998 25.8332C27.8998 24.6918 28.825 23.7666 29.9664 23.7666H34.1002C35.2378 23.7751 36.1583 24.6956 36.1668 25.8332Z" fill="#CAD9FC"/>
<path d="M6.19996 25.8333C6.2028 26.3815 5.98284 26.9075 5.59023 27.2906C5.49799 27.3848 5.39771 27.4713 5.29081 27.5489C4.94929 27.7802 4.5458 27.9027 4.13332 27.8999H3.10024C1.96026 27.8966 1.03692 26.9732 1.03361 25.8333C1.03029 25.285 1.25072 24.759 1.64286 24.3764C2.02601 23.9837 2.55201 23.7638 3.10024 23.7666H4.13332C5.27473 23.7666 6.19996 24.6919 6.19996 25.8333Z" fill="#E8EDFC"/>
<path d="M33.0666 25.8332C33.0633 26.9732 32.14 27.8966 31 27.8999H29.9664C29.5544 27.9027 29.151 27.7802 28.8094 27.5489C28.7025 27.4713 28.6022 27.3848 28.5095 27.2906C28.1169 26.9075 27.897 26.3815 27.8998 25.8332C27.8998 24.6918 28.825 23.7666 29.9664 23.7666H31C32.1381 23.7751 33.0581 24.6956 33.0666 25.8332Z" fill="#E8EDFC"/>
<path d="M19.6333 9.29999H18.8788C18.2847 9.30141 17.7185 9.04739 17.3249 8.60228C16.9314 8.15717 16.7483 7.56447 16.8226 6.97508L17.3391 2.84134C17.473 1.80779 18.3533 1.03345 19.3958 1.03345H16.2957C15.2531 1.03345 14.3728 1.80779 14.2394 2.84134L13.7229 6.97508C13.6486 7.56447 13.8317 8.15717 14.2252 8.60228C14.6188 9.04739 15.185 9.30141 15.7791 9.29999H16.5336V13.4333H19.6333V9.29999Z" fill="white"/>
<path d="M10.3332 23.7665C10.6965 23.7675 11.0527 23.8635 11.3668 24.0456V18.6002C11.3668 15.7464 13.6799 13.4333 16.5336 13.4333H13.4334C10.5802 13.4333 8.2666 15.7464 8.2666 18.6002V23.7665H10.3332Z" fill="white"/>
<path d="M3.10024 27.8997H6.19996C5.05997 27.8963 4.13663 26.973 4.13332 25.833C4.14184 24.6954 5.06234 23.7749 6.19996 23.7664H3.10024C2.55201 23.7635 2.02601 23.9835 1.64286 24.3761C1.25072 24.7588 1.03029 25.2848 1.03361 25.833C1.03692 26.973 1.96026 27.8963 3.10024 27.8997Z" fill="white"/>
<path d="M9.0106 50.9743C9.17947 51.9681 10.0385 52.6961 11.0465 52.6999H14.1462C13.1387 52.6961 12.2797 51.9681 12.1108 50.9743L10.1061 38.9156C9.89516 37.716 10.2277 36.4842 11.0139 35.5543C11.8005 34.6243 12.9594 34.0912 14.1774 34.0997L11.0772 34.1002C9.85921 34.0912 8.7003 34.6243 7.91414 35.5543C7.1275 36.4842 6.79497 37.716 7.00594 38.9156L9.0106 50.9743Z" fill="white"/>
<path d="M11.3667 60.9663H14.4664C13.3264 60.963 12.4035 60.0396 12.3998 58.8996C12.4083 57.762 13.3288 56.8415 14.4664 56.833H11.3667C10.2286 56.8415 9.30856 57.762 9.30005 58.8996C9.30336 60.0396 10.2267 60.963 11.3667 60.9663Z" fill="white"/>
<path d="M15.5 28.9333H18.6002V34.1002H15.5V28.9333Z" fill="white"/>
<path d="M16.5336 52.6997H19.6333V56.833H16.5336V52.6997Z" fill="white"/>
<path d="M13.4334 14.4663C11.5796 14.4758 9.95623 15.7127 9.45482 17.4974C9.33184 17.9482 9.27933 18.416 9.30015 18.8829V24.0497H7.23351V18.8829C7.21364 18.2297 7.29122 17.5774 7.46293 16.9464C8.21361 14.2672 10.6511 12.411 13.4334 12.3997V14.4663Z" fill="white"/>
<path d="M7.87398 19.7046C7.99838 19.7571 8.13177 19.785 8.26658 19.7874C8.54141 19.7902 8.8063 19.6819 9.00024 19.4875C9.19465 19.2931 9.30298 19.0287 9.30014 18.7538C9.30014 18.5098 9.20317 18.2751 9.03052 18.103L8.89287 17.98C8.84036 17.9369 8.78312 17.8996 8.72258 17.8693C8.66771 17.8329 8.60858 17.804 8.54661 17.7827C8.48134 17.76 8.41417 17.7416 8.34605 17.7279C8.06933 17.681 7.78552 17.7596 7.57219 17.9426C7.46387 18.0486 7.38061 18.1777 7.32858 18.3201C7.15214 18.7155 7.23398 19.1791 7.53529 19.4908C7.63415 19.5821 7.7491 19.6545 7.87398 19.7046Z" fill="#428DFF"/>
<path d="M3.10019 28.9334H4.13327V36.1668C4.14273 37.3839 4.86078 38.4837 5.97144 38.9813C5.97144 39.0154 5.97806 39.0499 5.98279 39.0849L7.99266 51.1427C8.23816 52.6394 9.53377 53.7372 11.0503 53.7335H15.5V55.8001H11.3667C9.65439 55.8001 8.26654 57.1879 8.26654 58.8998C8.26654 60.6122 9.65439 62 11.3667 62H25.8332C27.5455 62 28.9334 60.6122 28.9334 58.8998C28.9334 57.1879 27.5455 55.8001 25.8332 55.8001H21.6999V53.7335H26.1496C27.6661 53.7372 28.9617 52.6394 29.2072 51.1427L31.2171 39.0825C31.2171 39.0499 31.2233 39.0154 31.2285 38.9794C32.3387 38.4818 33.0567 37.383 33.0666 36.1668V28.9334H34.1002C35.8121 28.9334 37.1999 27.5455 37.1999 25.8332C37.1999 24.1213 35.8121 22.7335 34.1002 22.7335H29.9664V18.6002C29.9631 15.1774 27.1893 12.4036 23.7665 12.3998H21.6999V10.3043C22.5376 10.2372 23.3115 9.82941 23.8403 9.17664C24.3696 8.52386 24.6085 7.68236 24.5011 6.84889L23.9846 2.71562C23.7907 1.16411 22.4719 0 20.9085 0H16.2914C14.728 0 13.4092 1.16411 13.2153 2.71562L12.6988 6.84889C12.5914 7.68236 12.8303 8.52386 13.3596 9.17664C13.8889 9.82941 14.6623 10.2372 15.5 10.3043V12.3998H13.4334C11.7584 12.3998 10.1548 13.08 8.98979 14.2839C8.76794 14.4835 8.64969 14.7739 8.67003 15.0719C8.6899 15.3699 8.84647 15.6424 9.09338 15.8098C9.52242 16.0903 10.0848 16.0549 10.4751 15.7223C11.2499 14.9196 12.3175 14.4664 13.4334 14.4664H23.7665C26.0493 14.4664 27.8998 16.3174 27.8998 18.6002V23.5395C26.6983 24.5972 26.5176 26.4041 27.4869 27.6789C27.3104 27.8199 27.0924 27.8974 26.8667 27.8998H10.3332C10.108 27.8974 9.88948 27.8199 9.71352 27.6789C10.6823 26.4041 10.502 24.5972 9.30009 23.5395V22.8872C9.30009 22.3167 8.83748 21.8541 8.26654 21.8541C7.76088 21.8588 7.33469 22.2325 7.26421 22.7335C7.2538 22.7335 7.24387 22.7335 7.23346 22.7335H3.10019C1.38785 22.7335 0 24.1213 0 25.8332C0 27.5455 1.38785 28.9334 3.10019 28.9334ZM14.7488 7.10527L15.2654 2.972C15.3302 2.45451 15.7701 2.06616 16.2914 2.06664H20.9085C21.4298 2.06616 21.8697 2.45451 21.9345 2.972L22.4511 7.10527C22.488 7.39949 22.3967 7.69513 22.2004 7.91745C22.0041 8.13977 21.7217 8.26701 21.4251 8.26654H15.7748C15.4782 8.26701 15.1958 8.13977 14.9995 7.91745C14.8032 7.69513 14.7119 7.39949 14.7488 7.10527ZM17.5666 12.3998V10.3332H19.6333V12.3998H17.5666ZM26.8667 58.8998C26.8667 59.4707 26.4041 59.9334 25.8332 59.9334H11.3667C10.7958 59.9334 10.3332 59.4707 10.3332 58.8998C10.3332 58.3293 10.7958 57.8667 11.3667 57.8667H25.8332C26.4041 57.8667 26.8667 58.3293 26.8667 58.8998ZM19.6333 55.8001H17.5666V53.7335H19.6333V55.8001ZM29.1784 38.7429L27.1685 50.804C27.0853 51.3017 26.6543 51.6664 26.1496 51.6668H11.0503C10.5456 51.6664 10.1146 51.3012 10.0314 50.8026L8.02199 38.7429C7.87204 37.8442 8.12511 36.9246 8.71402 36.2297C9.30341 35.5344 10.1681 35.1333 11.0796 35.1333H26.1208C27.0318 35.1333 27.897 35.5344 28.4859 36.2297C29.0748 36.9246 29.3279 37.8442 29.1784 38.7429ZM16.5336 31H20.6668V33.0666H16.5336V31ZM34.1002 24.8001C34.6707 24.8001 35.1333 25.2627 35.1333 25.8332C35.1333 26.4041 34.6707 26.8667 34.1002 26.8667H29.9664C29.396 26.8667 28.9334 26.4041 28.9334 25.8332C28.9334 25.2627 29.396 24.8001 29.9664 24.8001H34.1002ZM26.8667 29.9664C27.7872 29.9641 28.659 29.5507 29.2432 28.8392C29.4797 28.8993 29.7228 28.9305 29.9664 28.9334H31V36.1668C30.9957 36.2515 30.9797 36.3352 30.9536 36.4156C30.2006 34.3991 28.273 33.0638 26.1208 33.0666H22.7335V29.9664H26.8667ZM14.4664 29.9664V33.0666H11.0796C8.92688 33.0638 6.99931 34.3991 6.24673 36.4156C6.22025 36.3352 6.20464 36.2515 6.19991 36.1668V28.9334H7.23346C7.47754 28.9305 7.7202 28.8993 7.95671 28.8392C8.54089 29.5507 9.41267 29.9641 10.3332 29.9664H14.4664ZM3.10019 24.8001H7.23346C7.80392 24.8001 8.26654 25.2627 8.26654 25.8332C8.26654 26.4041 7.80392 26.8667 7.23346 26.8667H3.10019C2.52925 26.8667 2.06664 26.4041 2.06664 25.8332C2.06664 25.2627 2.52925 24.8001 3.10019 24.8001Z" fill="#428DFF"/>
<path d="M55.8001 38.2334H45.4664C44.325 38.2334 43.3998 39.1586 43.3998 40.3V42.3667C43.3998 43.5081 44.325 44.4333 45.4664 44.4333H55.8001C56.9415 44.4333 57.8667 43.5081 57.8667 42.3667V40.3C57.8667 39.1586 56.9415 38.2334 55.8001 38.2334ZM45.4664 42.3667V40.3H55.8001V42.3667H45.4664Z" fill="#428DFF"/>
<path d="M55.8001 46.5H45.4664C44.325 46.5 43.3998 47.4252 43.3998 48.5666V50.6333C43.3998 51.7747 44.325 52.6999 45.4664 52.6999H55.8001C56.9415 52.6999 57.8667 51.7747 57.8667 50.6333V48.5666C57.8667 47.4252 56.9415 46.5 55.8001 46.5ZM45.4664 50.6333V48.5666H55.8001V50.6333H45.4664Z" fill="#428DFF"/>
<path d="M31 5.16682H34.287L34.5968 6.71645L33.8736 6.91322C33.1541 7.10149 32.5586 7.60478 32.2521 8.28262C31.9456 8.95999 31.9612 9.74001 32.2946 10.4046L35.8589 17.6172C36.1881 18.2847 36.7992 18.7686 37.5239 18.936C38.2491 19.104 39.0106 18.937 39.5995 18.4824L40.3587 17.8921L40.8578 18.6413L38.5352 20.9653C38.2666 21.2245 38.1587 21.6091 38.2533 21.97C38.3479 22.3314 38.6298 22.6138 38.9912 22.7084C39.3526 22.803 39.7367 22.6951 39.9964 22.4265L42.9183 19.5032C43.2664 19.155 43.3203 18.6096 43.0474 18.2L41.9419 16.5435C43.0455 15.3042 43.5143 13.624 43.212 11.9921L48.3992 6.19991H55.8001V34.1002H53.7334V22.7335C53.7334 21.0211 52.3456 19.6333 50.6333 19.6333H47.5335C45.8212 19.6333 44.4333 21.0211 44.4333 22.7335C44.4333 23.3039 44.896 23.7665 45.4664 23.7665C46.0374 23.7665 46.5 23.3039 46.5 22.7335C46.5 22.1625 46.9626 21.6999 47.5335 21.6999H50.6333C51.2042 21.6999 51.6668 22.1625 51.6668 22.7335V34.1002H48.4697C48.85 33.5841 49.1276 32.9995 49.287 32.3784L50.2818 28.4003C50.436 27.783 50.2969 27.1288 49.9053 26.6274C49.5136 26.126 48.9124 25.8332 48.2762 25.8332H40.5905C39.9538 25.8336 39.3531 26.1264 38.9614 26.6283C38.5702 27.1297 38.4312 27.7839 38.5858 28.4012L39.5797 32.3784C39.7826 33.1939 40.1884 33.945 40.7589 34.5619C39.8351 35.1205 39.2694 36.1205 39.2665 37.1999V58.8998C39.2665 60.6122 40.6544 62 42.3667 62H58.8998C60.6121 62 62 60.6122 62 58.8998V37.1999C61.9986 36.7576 61.9016 36.321 61.7157 35.9199C61.8973 35.7302 61.999 35.4781 62 35.216V3.10019C62 1.38785 60.6121 0 58.8998 0H47.0165C46.1376 0.00283813 45.3013 0.378418 44.7153 1.03355L39.5839 6.74577C38.6606 6.29735 37.628 6.12328 36.6091 6.24437L36.146 3.92656C36.0476 3.4455 35.6243 3.09972 35.1333 3.10019H31C30.4295 3.10019 29.9664 3.56281 29.9664 4.13327C29.9664 4.70421 30.4295 5.16682 31 5.16682ZM57.8667 6.19991H58.8998C59.2527 6.19659 59.6018 6.13321 59.9333 6.01306V34.1825H59.5871C59.3619 34.1295 59.1316 34.1016 58.8998 34.1002H57.8667V6.19991ZM40.5905 27.8998H48.2771L47.2833 31.8775C46.9569 33.1849 45.781 34.1021 44.4333 34.1002C43.0862 34.1011 41.9117 33.1844 41.5853 31.8775L40.5905 27.8998ZM59.9333 58.8998C59.9333 59.4707 59.4707 59.9334 58.8998 59.9334H42.3667C41.7958 59.9334 41.3332 59.4707 41.3332 58.8998V37.1999C41.3332 36.6294 41.7958 36.1668 42.3667 36.1668H56.4283C56.5564 36.2212 56.6941 36.2491 56.8332 36.2491H59.3042C59.6855 36.4114 59.9333 36.7855 59.9333 37.1999V58.8998ZM58.8998 2.06664C59.4707 2.06664 59.9333 2.52925 59.9333 3.10019C59.9338 3.37833 59.8194 3.64464 59.6169 3.83574C59.4286 4.02873 59.1694 4.13611 58.8998 4.13327H49.937C50.1763 3.46489 50.1744 2.7336 49.9318 2.06664H58.8998ZM46.2512 2.40958C46.4461 2.19246 46.7242 2.06758 47.0165 2.06664C47.4229 2.06853 47.7904 2.30835 47.9555 2.6792C48.121 3.05052 48.0534 3.48381 47.7833 3.78702L42.3762 9.82704L42.0659 9.19366C41.9613 8.98412 41.844 8.78166 41.7144 8.58678C41.6714 8.52292 41.6217 8.46426 41.5763 8.40088C41.485 8.276 41.3932 8.15207 41.293 8.03618C41.2788 8.01962 41.266 8.00023 41.2518 7.98367L46.2512 2.40958ZM37.2382 8.26654C37.9435 8.26701 38.6308 8.49028 39.2017 8.90417C39.6336 9.21495 39.9813 9.62885 40.213 10.108L40.9084 11.5176C40.9883 11.6728 41.0536 11.835 41.1037 12.002C41.3833 12.9216 41.249 13.9168 40.7362 14.729L40.1293 13.8198C39.8086 13.3563 39.1757 13.2352 38.7065 13.5478C38.2377 13.8605 38.1057 14.4915 38.4099 14.966L39.214 16.1726L38.3399 16.8514C38.2424 16.9276 38.1157 16.955 37.9955 16.9262C37.8739 16.8987 37.7708 16.8178 37.7155 16.7057L34.1432 9.4841C34.0888 9.37767 34.085 9.25232 34.1342 9.14305C34.1867 9.02763 34.2889 8.94249 34.4119 8.91269L35.0032 8.75233L35.1541 9.50255C35.2506 9.9855 35.6744 10.3332 36.1668 10.3332C36.2359 10.3336 36.3054 10.327 36.3735 10.3128C36.6417 10.258 36.8778 10.0986 37.0291 9.87009C37.18 9.64114 37.2344 9.36206 37.1796 9.09338L37.0192 8.29161C37.0968 8.29066 37.1649 8.26654 37.2382 8.26654Z" fill="#428DFF"/>
</svg>
