<svg width="62" height="62" viewBox="0 0 62 62" fill="none" xmlns="http://www.w3.org/2000/svg">
<path d="M25.8328 46.9034V58.9003C25.829 60.0402 24.9057 60.9636 23.7658 60.9669H20.6662C21.8061 60.9636 22.7294 60.0402 22.7327 58.9003V46.9034C22.7346 45.2559 22.0804 43.6756 20.914 42.512L19.7362 41.3342L9.42372 31.0321C9.23168 30.8406 9.01646 30.6741 8.78326 30.5359C9.99842 29.8364 11.5329 30.0398 12.5238 31.0321L22.8358 41.3342L24.0141 42.512C25.1801 43.6756 25.8347 45.2559 25.8328 46.9034Z" fill="#CAD9FC"/>
<path d="M22.7327 46.9036V58.9005C22.7294 60.0404 21.8061 60.9637 20.6662 60.967H10.7259C9.86456 60.9656 9.09497 60.4302 8.79367 59.6237C6.99577 54.8293 1.03351 38.6477 1.03351 35.1347V20.6682C1.03351 18.9564 2.42131 17.5686 4.13313 17.5686C5.84541 17.5686 7.23322 18.9564 7.23322 20.6682V33.2228C7.23605 32.4012 7.56243 31.6141 8.14234 31.0323C8.33438 30.8407 8.5496 30.6742 8.78326 30.5361C9.01645 30.6742 9.23167 30.8407 9.42371 31.0323L19.7362 41.3344L20.914 42.5122C22.0804 43.6758 22.7346 45.2561 22.7327 46.9036Z" fill="#E8EDFC"/>
<path d="M8.78331 30.536C8.54964 30.6742 8.33441 30.8407 8.14237 31.0322C7.56244 31.6141 7.23605 32.4012 7.23322 33.2228V30.1231C7.77767 30.1203 8.31265 30.2631 8.78331 30.536Z" fill="#CAD9FC"/>
<path d="M7.23322 33.2227C7.23605 34.0443 7.56243 34.8314 8.14234 35.4132C11.1596 38.3997 13.5777 41.2515 16.533 44.2995C17.7004 45.4981 18.9094 46.7795 18.9094 48.5675" fill="#CBB292"/>
<path d="M60.965 20.6683V35.1347C60.965 38.6478 55.0027 54.8293 53.2048 59.6237C52.9035 60.4302 52.1334 60.9657 51.2726 60.9671H48.1725C49.0338 60.9657 49.8034 60.4302 50.1047 59.6237C51.9026 54.8293 57.8649 38.6478 57.8649 35.1347V20.6683C57.8658 19.56 57.2746 18.536 56.3148 17.9816C57.2746 17.4277 58.4566 17.4282 59.4159 17.9821C60.3751 18.5364 60.9654 19.5605 60.965 20.6683Z" fill="#CAD9FC"/>
<path d="M57.8649 20.6681V35.1346C57.8649 38.6476 51.9026 54.8292 50.1047 59.6236C49.8034 60.4301 49.0338 60.9655 48.1725 60.9669H38.2322C37.0923 60.9636 36.169 60.0403 36.1657 58.9004V46.9035C36.1633 45.256 36.8179 43.6757 37.9844 42.5121L39.1622 41.3343L49.4747 31.0322C49.6662 30.8406 49.8815 30.6741 50.1151 30.536C51.3307 29.8364 52.8647 30.0398 53.8557 31.0322C54.4356 31.614 54.7624 32.4011 54.7648 33.2227V20.6681C54.7648 19.846 55.0921 19.058 55.6744 18.4776C55.8674 18.2875 56.0826 18.121 56.3148 17.9814C57.2746 18.5358 57.8658 19.5599 57.8649 20.6681Z" fill="#E8EDFC"/>
<path d="M43.0886 48.5675C43.1042 47.6863 43.388 46.8306 43.9031 46.1154C44.3686 45.465 44.8917 44.8572 45.4655 44.2995C48.4204 41.2515 50.8384 38.3997 53.8557 35.4132C54.4356 34.8314 54.7624 34.0443 54.7648 33.2227" fill="#CBB292"/>
<path d="M43.4505 13.6832C42.7727 15.1098 42.0135 16.4967 41.1772 17.8367C40.3674 19.2851 39.8377 20.8734 39.6168 22.5176C39.4559 24.2876 39.1589 26.0425 38.7285 27.767C38.3874 29.0276 37.8293 31.001 36.2277 31.001C35.8843 30.974 35.5721 30.7915 35.3805 30.5053C34.2746 29.1828 33.5102 25.4626 33.0864 22.4353C32.7865 20.286 31.7946 19.8517 30.999 19.759C30.624 19.7874 30.2654 19.9236 29.966 20.1516C29.3274 20.7443 28.9486 21.565 28.9117 22.4353C28.3847 26.1863 27.3413 31.001 25.7704 31.001C25.3144 31.0034 24.8764 30.825 24.5515 30.5053C23.8987 29.7163 23.4574 28.7736 23.2701 27.767C22.8397 26.0425 22.5421 24.2876 22.3813 22.5176C22.1604 20.8734 21.6311 19.2851 20.8213 17.8367C19.9846 16.4967 19.2259 15.1098 18.5481 13.6832C17.2251 10.3041 16.9153 5.78875 19.7259 3.09167C20.9495 1.95408 22.5157 1.25261 24.1792 1.09747C26.199 0.86049 28.239 1.316 29.966 2.38925C30.3359 2.61109 30.6821 2.87077 30.999 3.16404C32.3263 1.99145 33.9899 1.26822 35.7523 1.09747C38.1135 0.76778 40.4999 1.49763 42.2722 3.09167C45.0828 5.78875 44.773 10.3041 43.4505 13.6832Z" fill="#E8EDFC"/>
<path d="M40.3503 13.6832C39.6725 15.1098 38.9133 16.4966 38.0771 17.8367C37.2673 19.285 36.738 20.8734 36.5171 22.5175C36.3558 24.2875 36.0587 26.0424 35.6283 27.767C35.441 28.7735 34.9997 29.7162 34.3469 30.5052C33.2415 29.1827 32.4767 25.4625 32.0528 22.4352C31.9909 21.6638 31.6938 20.9297 31.2014 20.3323C30.3349 19.3952 28.6297 19.514 27.5262 19.8692C26.486 20.2963 25.8082 21.3109 25.812 22.4352C25.3882 25.4625 24.6238 29.1827 23.5179 30.5052C22.8652 29.7162 22.4243 28.7735 22.2365 27.767C21.8061 26.0424 21.509 24.2875 21.3482 22.5175C21.1273 20.8734 20.5976 19.285 19.7878 17.8367C18.9515 16.4966 18.1923 15.1098 17.5145 13.6832C16.192 10.304 15.8817 5.7887 18.6923 3.09161C19.9164 1.95403 21.4821 1.25256 23.1461 1.09741C24.9232 1.29371 26.5849 0.857597 27.8559 2.02734C28.1761 1.73786 28.5606 2.6082 28.9324 2.39109C29.3028 2.6134 29.649 2.87308 29.9659 3.16587C31.2927 1.99329 32.9563 1.27006 34.7192 1.0993C36.3828 1.25492 37.9484 1.95592 39.1726 3.09398C41.9832 5.7887 41.6729 10.304 40.3503 13.6832Z" fill="white"/>
<path d="M10.7259 60.967H13.8255C12.9646 60.9656 12.1946 60.4302 11.8933 59.6237C10.0954 54.8293 4.13313 38.6477 4.13313 35.1347V20.6682C4.13313 19.5666 4.71776 18.5477 5.66898 17.9919C5.20307 17.7181 4.6733 17.5719 4.13313 17.5686C2.42131 17.5686 1.03351 18.9564 1.03351 20.6682V35.1347C1.03351 38.6477 6.99577 54.8293 8.79367 59.6237C9.09497 60.4302 9.86456 60.9656 10.7259 60.967Z" fill="white"/>
<path d="M27.0995 29.7465V29.7351C27.0778 29.7786 27.0579 29.8316 27.0366 29.8718C27.0541 29.8292 27.0726 29.7909 27.0995 29.7465Z" fill="white"/>
<path d="M19.7878 17.8367C20.5976 19.285 21.1273 20.8734 21.3482 22.5176C21.509 24.2876 21.8061 26.0424 22.2365 27.767C22.4243 28.7736 22.8652 29.7163 23.5179 30.5052C23.7043 30.2664 23.8641 30.0086 23.9942 29.7352C24.1385 30.0195 24.3263 30.2796 24.5514 30.5052C24.8764 30.825 25.3144 31.0033 25.7704 31.001C26.2221 31.001 26.6284 30.5942 26.9931 29.9381C26.8857 30.1382 26.7599 30.3279 26.618 30.5052C25.9652 29.7163 25.5239 28.7736 25.3366 27.767C24.9062 26.0424 24.6091 24.2876 24.4478 22.5176C24.2269 20.8734 23.6976 19.285 22.8879 17.8367C22.0511 16.4967 21.2924 15.1098 20.6146 13.6832C19.2916 10.304 18.9818 5.78871 21.7924 3.09162C23.0104 1.95925 24.5675 1.26014 26.223 1.10168C25.5438 1.026 24.8584 1.026 24.1792 1.10168C24.0865 1.11209 23.9975 1.13858 23.9053 1.15229C23.6546 1.14378 23.4025 1.12959 23.1461 1.10168C21.4821 1.25683 19.9164 1.95783 18.6923 3.09588C15.8817 5.79297 16.192 10.3083 17.5145 13.687C18.1928 15.1126 18.9515 16.4981 19.7878 17.8367Z" fill="white"/>
<path d="M2.06657 35.1345L2.12995 35.8237L2.27044 36.5956C2.37355 37.1122 2.50694 37.6486 2.63607 38.1755C2.91278 39.2374 3.21882 40.3007 3.53999 41.3621C4.18375 43.4864 4.88948 45.5984 5.60656 47.7137C6.93334 51.5805 8.33061 55.4294 9.76193 59.2617L7.82638 59.9854C6.38796 56.1351 4.98692 52.2735 3.65493 48.3801C2.9317 46.2549 2.2184 44.1221 1.56234 41.9614C1.23597 40.8806 0.921891 39.7913 0.632411 38.6868C0.497131 38.131 0.35854 37.5762 0.243126 36.9944L0.0846683 36.1141C0.0477738 35.7977 0.0250694 35.4618 0 35.1345H2.06657Z" fill="white"/>
<path d="M0.838169 39.4502C0.908647 39.717 1.08366 39.944 1.32347 40.0803C1.56329 40.2165 1.84804 40.2501 2.1134 40.1739C2.65594 40.0164 2.97616 39.4569 2.83663 38.9091C2.46153 37.6779 2.20374 36.414 2.06657 35.1345V20.6681C2.06657 19.5267 2.99177 18.6015 4.13314 18.6015C5.27451 18.6015 6.19971 19.5267 6.19971 20.6681V33.2226C6.20207 34.32 6.63913 35.3715 7.41486 36.1467C9.11911 37.8354 10.6048 39.4535 12.1766 41.1583C13.3256 42.4079 14.5147 43.7002 15.7932 45.0166C17.0136 46.2762 17.8764 47.2686 17.8764 48.5674C17.8764 49.1379 18.339 49.6005 18.9094 49.6005C19.4803 49.6005 19.9429 49.1379 19.9429 48.5674C19.9429 46.3301 18.462 44.8037 17.2728 43.5772C16.0122 42.2783 14.8496 41.014 13.6955 39.7596C12.1766 38.1059 10.6058 36.4012 8.8774 34.6889C8.31783 34.1762 8.08464 33.3986 8.26912 32.6626C8.45359 31.9266 9.02687 31.3509 9.76193 31.1631C10.497 30.9754 11.276 31.2057 11.7911 31.7624L23.2857 43.2456C24.2577 44.2125 24.8026 45.5274 24.7993 46.8982V58.9003C24.7993 59.4707 24.3367 59.9333 23.7658 59.9333H10.7297C10.2993 59.9319 9.91424 59.6651 9.76193 59.2631C8.33061 55.4294 6.93334 51.5805 5.60987 47.7137L5.27829 46.7393C5.09524 46.1986 4.50871 45.9087 3.96806 46.0913C3.42741 46.2743 3.13699 46.8608 3.32004 47.4015L3.65493 48.382C4.98692 52.2758 6.38796 56.137 7.82638 59.9873C8.28283 61.1958 9.43839 61.9966 10.7297 61.9999H23.7658C25.4781 61.9999 26.8659 60.6121 26.8659 58.9003V46.8982C26.8711 44.9792 26.1081 43.1378 24.7468 41.7845L13.2603 30.3079C11.943 28.9698 9.88302 28.7016 8.26628 29.658V20.6681C8.26628 18.3853 6.41587 16.5349 4.13314 16.5349C1.8504 16.5349 0 18.3853 0 20.6681V35.1345C0.0454086 35.8956 0.1542 36.6519 0.325429 37.395C0.483887 38.0894 0.648966 38.7786 0.838169 39.4502Z" fill="#428DFF"/>
<path d="M3.93314 43.618C4.18621 43.111 3.99227 42.4946 3.4937 42.225L3.30875 42.1526C3.24111 42.1323 3.17063 42.1209 3.10014 42.1195C3.03534 42.1096 2.96959 42.1096 2.90479 42.1195C2.83478 42.1285 2.76572 42.1422 2.69808 42.1607C2.43744 42.2444 2.21843 42.4246 2.08646 42.664C1.83528 43.1762 2.03017 43.795 2.52968 44.0703C2.65266 44.1294 2.78558 44.1644 2.92134 44.1739C3.05568 44.1866 3.19144 44.1724 3.3201 44.1322C3.58216 44.0442 3.80069 43.8602 3.93314 43.618Z" fill="#428DFF"/>
<path d="M57.8649 16.5349C55.5822 16.5349 53.7318 18.3853 53.7318 20.6681V29.658C52.1183 28.7044 50.0636 28.9689 48.7439 30.2994L37.2517 41.7845C35.8904 43.1378 35.127 44.9792 35.1322 46.8982V58.9003C35.1322 60.6121 36.5204 61.9999 38.2323 61.9999H51.2683C52.5601 61.9966 53.7152 61.1958 54.1721 59.9873C56.5216 53.7057 61.998 38.7095 61.998 35.1345V20.6681C61.998 18.3853 60.1476 16.5349 57.8649 16.5349ZM52.2366 59.2631C52.0838 59.6651 51.6988 59.9319 51.2683 59.9333H38.2323C37.6613 59.9333 37.1987 59.4707 37.1987 58.9003V46.8982C37.1954 45.5274 37.7408 44.2125 38.7128 43.2456L50.2112 31.7563C50.8038 31.1702 51.6903 30.9971 52.4598 31.3173C53.229 31.638 53.7308 32.3892 53.7318 33.2226C53.7294 33.7689 53.5128 34.2921 53.1282 34.6795C51.3904 36.4012 49.8219 38.1083 48.3007 39.7596C47.1466 41.014 45.9839 42.2783 44.7233 43.5824C43.5342 44.8037 42.0556 46.3301 42.0556 48.5674C42.0556 49.1379 42.5182 49.6005 43.0886 49.6005C43.6595 49.6005 44.1221 49.1379 44.1221 48.5674C44.1221 47.2686 44.9868 46.2762 46.2095 45.0166C47.4852 43.7002 48.6748 42.4079 49.8257 41.1583C51.3975 39.4493 52.8832 37.8354 54.5964 36.1378C55.3665 35.363 55.7988 34.3148 55.7983 33.2226V20.6681C55.7983 19.5267 56.7235 18.6015 57.8649 18.6015C59.0063 18.6015 59.9315 19.5267 59.9315 20.6681V35.1345C59.9315 37.7786 55.9563 49.3318 52.2366 59.2631Z" fill="#428DFF"/>
<path d="M39.7231 28.0385C40.1697 26.2619 40.4771 24.4531 40.6417 22.6283C40.8456 21.1147 41.3366 19.6535 42.0887 18.3234C42.3498 17.8329 42.6359 17.3618 42.9211 16.8902C43.5001 15.9901 44.0001 15.0417 44.4154 14.055C45.8415 10.419 46.2156 5.4321 42.9874 2.34053C39.9218 -0.603471 34.5309 -0.766659 30.999 1.8311C27.4694 -0.765713 22.0786 -0.604418 19.013 2.34053C15.7838 5.43305 16.1579 10.42 17.5836 14.0569C17.9998 15.0427 18.4998 15.9906 19.0787 16.8902C19.364 17.3618 19.6501 17.8329 19.9127 18.3234C20.6643 19.654 21.1552 21.1151 21.3596 22.6292C21.5242 24.4508 21.8307 26.2567 22.2758 28.0305C22.623 29.3303 23.3528 32.0345 25.7704 32.0345C26.5475 32.0345 28.6131 32.0345 29.9305 22.5796C30.1447 21.0693 30.6717 20.854 30.999 20.8006C31.3268 20.854 31.8537 21.0693 32.0675 22.5777C33.3848 32.0345 35.4505 32.0345 36.2276 32.0345C38.6456 32.0345 39.375 29.3303 39.7231 28.0385ZM34.1147 22.2906C33.7311 19.5821 32.2733 18.8598 31.1177 18.7317C31.0785 18.7331 31.0392 18.7369 30.9999 18.743C30.9607 18.7369 30.9205 18.7331 30.8803 18.7317C29.7252 18.8598 28.2669 19.5821 27.8838 22.2924C27.0787 28.0717 26.0239 29.8057 25.7704 29.9679C24.9998 29.9679 24.5916 28.6908 24.2662 27.488C23.8462 25.8168 23.5595 24.1154 23.4086 22.3989C23.1783 20.6256 22.6102 18.9128 21.7347 17.3533C21.4556 16.8297 21.1505 16.3255 20.8459 15.8222C20.3275 15.0219 19.8781 14.179 19.5026 13.3029C18.3754 10.428 17.9445 6.22486 20.4386 3.83476C22.9333 1.44465 27.6283 1.49101 30.2994 3.92888C30.3098 3.93787 30.3235 3.94118 30.3335 3.94922C30.3439 3.95774 30.35 3.97335 30.3628 3.98233C30.3935 4.00646 33.4719 6.424 34.2273 9.00331C34.3559 9.44415 34.7599 9.74735 35.2192 9.74735C35.3176 9.74735 35.4155 9.73316 35.5096 9.70478C35.7726 9.62815 35.9944 9.44935 36.1259 9.20907C36.2574 8.96878 36.2882 8.68545 36.2111 8.42245C35.4703 6.42258 34.2434 4.63792 32.6408 3.23025C35.371 1.52128 39.3348 1.70528 41.5542 3.8357C44.0479 6.22486 43.6207 10.428 42.4841 13.302C42.109 14.1785 41.6596 15.0219 41.1407 15.8222C40.8309 16.3255 40.5315 16.8297 40.2534 17.3524C39.3774 18.9114 38.8088 20.6246 38.5785 22.3979C38.4271 24.1173 38.1395 25.8216 37.7185 27.4951C37.395 28.6927 36.9873 29.9698 36.308 29.9873C35.9798 29.8057 34.9193 28.0717 34.1147 22.2906Z" fill="#428DFF"/>
<path d="M23.271 4.26145C21.1855 5.47046 20.1227 7.89084 20.6444 10.2445C20.7669 10.7975 21.3118 11.1489 21.8662 11.0326C22.4205 10.9157 22.7777 10.3741 22.6665 9.81882C22.3368 8.35628 22.9815 6.84738 24.2662 6.07496C24.7662 5.80014 24.9492 5.17199 24.6744 4.67155C24.3996 4.17158 23.7715 3.989 23.271 4.26334V4.26145Z" fill="#428DFF"/>
<path d="M7.23323 3.10205C6.66231 3.10205 6.19971 3.56465 6.19971 4.13557V6.20214C6.19971 6.77259 6.66231 7.23519 7.23323 7.23519C7.80368 7.23519 8.26628 6.77259 8.26628 6.20214V4.13557C8.26628 3.56465 7.80368 3.10205 7.23323 3.10205Z" fill="#428DFF"/>
<path d="M6.19971 12.4018C6.19971 12.9723 6.66231 13.4349 7.23323 13.4349C7.80368 13.4349 8.26628 12.9723 8.26628 12.4018V10.3353C8.26628 9.76436 7.80368 9.30176 7.23323 9.30176C6.66231 9.30176 6.19971 9.76436 6.19971 10.3353V12.4018Z" fill="#428DFF"/>
<path d="M9.29982 9.30168H11.3664C11.9373 9.30168 12.3999 8.83908 12.3999 8.26863C12.3999 7.69771 11.9373 7.23511 11.3664 7.23511H9.29982C8.72937 7.23511 8.2663 7.69771 8.2663 8.26863C8.2663 8.83908 8.72937 9.30168 9.29982 9.30168Z" fill="#428DFF"/>
<path d="M5.16668 7.23511H3.10011C2.52919 7.23511 2.06659 7.69771 2.06659 8.26863C2.06659 8.83908 2.52919 9.30168 3.10011 9.30168H5.16668C5.73713 9.30168 6.19973 8.83908 6.19973 8.26863C6.19973 7.69771 5.73713 7.23511 5.16668 7.23511Z" fill="#428DFF"/>
<path d="M54.7648 3.10205C54.1944 3.10205 53.7318 3.56465 53.7318 4.13557V6.20214C53.7318 6.77259 54.1944 7.23519 54.7648 7.23519C55.3357 7.23519 55.7983 6.77259 55.7983 6.20214V4.13557C55.7983 3.56465 55.3357 3.10205 54.7648 3.10205Z" fill="#428DFF"/>
<path d="M53.7318 12.4018C53.7318 12.9723 54.1944 13.4349 54.7648 13.4349C55.3357 13.4349 55.7983 12.9723 55.7983 12.4018V10.3353C55.7983 9.76436 55.3357 9.30176 54.7648 9.30176C54.1944 9.30176 53.7318 9.76436 53.7318 10.3353V12.4018Z" fill="#428DFF"/>
<path d="M56.8319 9.30168H58.8984C59.4689 9.30168 59.9315 8.83908 59.9315 8.26863C59.9315 7.69771 59.4689 7.23511 58.8984 7.23511H56.8319C56.2609 7.23511 55.7983 7.69771 55.7983 8.26863C55.7983 8.83908 56.2609 9.30168 56.8319 9.30168Z" fill="#428DFF"/>
<path d="M52.6983 7.23511H50.6317C50.0612 7.23511 49.5986 7.69771 49.5986 8.26863C49.5986 8.83908 50.0612 9.30168 50.6317 9.30168H52.6983C53.2692 9.30168 53.7318 8.83908 53.7318 8.26863C53.7318 7.69771 53.2692 7.23511 52.6983 7.23511Z" fill="#428DFF"/>
<path d="M34.6522 33.5472C34.2482 33.1438 33.5945 33.1438 33.191 33.5472L31.7298 35.0094C31.4611 35.2691 31.3533 35.6531 31.4479 36.0145C31.5425 36.3755 31.8244 36.6578 32.1858 36.7525C32.5472 36.8471 32.9313 36.7392 33.191 36.4705L34.6522 35.0084C35.0552 34.6049 35.0552 33.9507 34.6522 33.5472Z" fill="#428DFF"/>
<path d="M28.8076 37.9314L27.3465 39.3935C27.0778 39.6532 26.9699 40.0373 27.0645 40.3987C27.1591 40.7596 27.4415 41.042 27.8024 41.1366C28.1638 41.2312 28.5479 41.1234 28.8076 40.8547L30.2688 39.3926C30.6605 38.9872 30.6548 38.3425 30.256 37.9442C29.8573 37.5454 29.213 37.5398 28.8076 37.9314Z" fill="#428DFF"/>
<path d="M33.191 37.9314C32.7851 37.5398 32.1409 37.5454 31.7421 37.9442C31.3438 38.3425 31.3382 38.9872 31.7298 39.3926L33.191 40.8547C33.4502 41.1234 33.8343 41.2312 34.1957 41.1366C34.5571 41.042 34.839 40.7596 34.9336 40.3987C35.0282 40.0373 34.9204 39.6532 34.6522 39.3935L33.191 37.9314Z" fill="#428DFF"/>
<path d="M30.2688 35.0093L28.8076 33.5471C28.4022 33.1555 27.7575 33.1612 27.3592 33.5599C26.9605 33.9582 26.9548 34.6029 27.3465 35.0083L28.8076 36.4704C29.213 36.8621 29.8573 36.8564 30.256 36.4581C30.6548 36.0594 30.6605 35.4146 30.2688 35.0093Z" fill="#428DFF"/>
</svg>
